<svg width="207" height="48" viewBox="0 0 207 48" fill="none" xmlns="http://www.w3.org/2000/svg">
<g clip-path="url(#clip0_12003_162)">
<path d="M23.9351 1.00009C20.8828 0.991983 17.8591 1.58323 15.0392 2.73962C12.2192 3.89602 9.65895 5.59459 7.50648 7.73705C6.25306 8.97587 5.14586 10.3516 4.20618 11.8379C5.33295 12.0886 6.44125 12.4146 7.52346 12.8138C11.1224 7.65439 17.1363 4.26735 23.9351 4.26735C27.9227 4.26239 31.8191 5.44817 35.1153 7.6698C36.4096 7.21716 37.7306 6.84286 39.0708 6.54896C34.8655 2.95465 29.4908 0.984245 23.9351 1.00009ZM46.8269 20.0432C45.9945 21.5403 45.0017 22.9443 43.8656 24.2309C43.7403 35.0064 34.8478 43.7335 23.9351 43.7335C19.6436 43.7281 15.4681 42.3544 12.0269 39.8159C8.58577 37.2774 6.06205 33.7092 4.82959 29.6397C3.10978 28.195 1.706 26.4179 0.704224 24.4173C0.796331 30.3764 3.2374 36.0639 7.50648 40.2659C8.75818 41.5067 10.1481 42.6028 11.6495 43.5332C14.0855 45.0428 16.7864 46.0855 19.6116 46.6071C21.0373 46.8708 22.4846 47.0033 23.9351 47.0029C26.9863 47.0029 30.0076 46.4079 32.8266 45.2518C35.6455 44.0958 38.2068 42.4013 40.3642 40.2653C42.5216 38.1292 44.2329 35.5933 45.4003 32.8025C46.5677 30.0116 47.1684 27.0204 47.168 23.9997C47.1686 22.6737 47.0544 21.35 46.8269 20.0432Z" fill="white"/>
<path d="M23.9351 1.00009C20.8828 0.991983 17.8591 1.58323 15.0392 2.73962C12.2192 3.89602 9.65895 5.59459 7.50648 7.73705C6.25306 8.97587 5.14586 10.3516 4.20618 11.8379C5.33295 12.0886 6.44125 12.4146 7.52346 12.8138C11.1224 7.65439 17.1363 4.26735 23.9351 4.26735C27.9227 4.26239 31.8191 5.44817 35.1153 7.6698C36.4096 7.21716 37.7306 6.84286 39.0708 6.54896C34.8655 2.95465 29.4908 0.984245 23.9351 1.00009ZM46.8269 20.0432C45.9945 21.5403 45.0017 22.9443 43.8656 24.2309C43.7403 35.0064 34.8478 43.7335 23.9351 43.7335C19.6436 43.7281 15.4681 42.3544 12.0269 39.8159C8.58577 37.2774 6.06205 33.7092 4.82959 29.6397C3.10978 28.195 1.706 26.4179 0.704224 24.4173C0.796331 30.3764 3.2374 36.0639 7.50648 40.2659C8.75818 41.5067 10.1481 42.6028 11.6495 43.5332C14.0855 45.0428 16.7864 46.0855 19.6116 46.6071C21.0373 46.8708 22.4846 47.0033 23.9351 47.0029C26.9863 47.0029 30.0076 46.4079 32.8266 45.2518C35.6455 44.0958 38.2068 42.4013 40.3642 40.2653C42.5216 38.1292 44.2329 35.5933 45.4003 32.8025C46.5677 30.0116 47.1684 27.0204 47.168 23.9997C47.1686 22.6737 47.0544 21.35 46.8269 20.0432Z" fill="white"/>
<path d="M17.7612 42.7647C17.7655 43.844 17.8157 44.9524 17.9119 46.0901L13.35 44.1987C13.2533 43.0213 13.2245 41.8395 13.2636 40.6589C13.442 35.0547 15.0921 29.1822 18.1242 23.9563C19.6543 24.2157 21.2039 24.3458 22.7562 24.3451C22.8893 24.3451 23.0209 24.3451 23.1532 24.3451C19.9208 28.9461 17.7315 35.1402 17.7612 42.7647Z" fill="#A2F7B4"/>
<path d="M21.7309 31.2822C22.9409 28.7786 24.3448 26.3786 26.0629 24.1488C36.1109 22.9453 44.4742 16.3295 48.0901 7.33618H48.1453C48.7821 21.4097 36.7945 32.3316 21.7309 31.2822Z" fill="#A2F7B4"/>
<path d="M5.44664 20.0908C5.3589 20.0655 5.27045 20.0422 5.18129 20.0207L5.91437 20.9314L13.2452 30.0207V31.0189C13.131 31.3874 13.023 31.7573 12.9211 32.1286C10.3737 31.316 8.13981 30.2007 6.28091 28.7184C5.52015 28.115 4.81927 27.4411 4.1878 26.7058C2.73296 25.0119 1.64041 22.9685 0.963935 20.5188C0.598081 19.1672 0.361172 17.7846 0.256325 16.3892C0.163807 15.1959 0.142544 13.9983 0.192643 12.8025L0.415537 12.8319C4.14043 18.1001 9.6416 21.88 15.9299 23.4918L14.1991 27.3965C12.227 23.9163 9.57696 21.4421 6.04245 20.275C5.97594 20.2526 5.90942 20.2309 5.8422 20.2105L5.81531 20.2021C5.7495 20.1811 5.68298 20.1615 5.61647 20.1419C5.54995 20.1223 5.50325 20.1083 5.44664 20.0908Z" fill="#A2F7B4"/>
<path d="M16.1082 23.0896L15.9299 23.4917C9.64192 21.878 4.14174 18.0964 0.418396 12.8269C0.833055 12.8815 1.24465 12.9418 1.65318 13.0076C2.22492 13.101 2.78936 13.205 3.34649 13.3194C4.45768 13.5482 5.55201 13.8511 6.62201 14.2259C7.148 14.4127 7.66243 14.6195 8.16531 14.8465C11.496 16.359 14.2847 18.85 16.1082 23.0896Z" fill="#A2F7B4"/>
<path d="M48.0879 7.33476C44.4721 16.3295 36.1088 22.9453 26.0608 24.1474C28.8487 20.5278 32.4653 17.3523 37.4292 14.9004C32.5573 15.4973 27.084 18.7414 23.1518 24.3442C23.0195 24.3442 22.8878 24.3442 22.7548 24.3442C21.2025 24.3449 19.6529 24.2148 18.1228 23.9554C23.6712 14.394 33.8431 6.9908 48.0879 7.33476Z" fill="#A2F7B4"/>
</g>
<path d="M77.4216 38.72C74.7816 38.72 72.5016 38.2667 70.5816 37.36C68.6882 36.4267 67.1149 35.2 65.8616 33.68C64.6082 32.16 63.6749 30.5333 63.0616 28.8C62.4749 27.04 62.1816 25.36 62.1816 23.76V22.88C62.1816 21.12 62.4882 19.36 63.1016 17.6C63.7416 15.84 64.6882 14.24 65.9416 12.8C67.2216 11.3333 68.8082 10.16 70.7016 9.28C72.6216 8.4 74.8616 7.96 77.4216 7.96C79.9816 7.96 82.2082 8.4 84.1016 9.28C85.9949 10.16 87.5816 11.3333 88.8616 12.8C90.1416 14.24 91.0882 15.84 91.7016 17.6C92.3416 19.36 92.6616 21.12 92.6616 22.88V23.76C92.6616 25.36 92.3549 27.04 91.7416 28.8C91.1282 30.5333 90.1949 32.16 88.9416 33.68C87.7149 35.2 86.1416 36.4267 84.2216 37.36C82.3016 38.2667 80.0349 38.72 77.4216 38.72ZM77.4216 34.28C79.0216 34.28 80.4616 33.9867 81.7416 33.4C83.0216 32.8133 84.1149 32.0133 85.0216 31C85.9282 29.9867 86.6082 28.8267 87.0616 27.52C87.5416 26.2133 87.7816 24.8267 87.7816 23.36C87.7816 21.8133 87.5416 20.3867 87.0616 19.08C86.5816 17.7467 85.8882 16.5867 84.9816 15.6C84.1016 14.5867 83.0216 13.8 81.7416 13.24C80.4616 12.68 79.0216 12.4 77.4216 12.4C75.8216 12.4 74.3816 12.68 73.1016 13.24C71.8216 13.8 70.7282 14.5867 69.8216 15.6C68.9149 16.5867 68.2216 17.7467 67.7416 19.08C67.2882 20.3867 67.0616 21.8133 67.0616 23.36C67.0616 24.8267 67.2882 26.2133 67.7416 27.52C68.2216 28.8267 68.9149 29.9867 69.8216 31C70.7282 32.0133 71.8216 32.8133 73.1016 33.4C74.3816 33.9867 75.8216 34.28 77.4216 34.28ZM98.1509 38V16.44H101.871V25.44H101.711C101.711 22.3467 102.391 20.04 103.751 18.52C105.111 16.9733 107.124 16.2 109.791 16.2H110.551V20.32H109.111C107.084 20.32 105.524 20.8667 104.431 21.96C103.364 23.0267 102.831 24.56 102.831 26.56V38H98.1509ZM119.857 38L112.817 16.44H117.697L124.497 38H119.857ZM121.177 38V34.2H126.417V38H121.177ZM123.177 38L129.097 16.44H133.657L127.537 38H123.177ZM151.112 38V31.56H150.352V24.28C150.352 22.9467 150.005 21.9333 149.312 21.24C148.619 20.5467 147.592 20.2 146.232 20.2C145.485 20.2 144.659 20.2133 143.752 20.24C142.845 20.2667 141.952 20.3067 141.072 20.36C140.219 20.3867 139.459 20.4267 138.792 20.48V16.44C139.379 16.3867 140.019 16.3467 140.712 16.32C141.432 16.2667 142.165 16.2267 142.912 16.2C143.685 16.1733 144.419 16.16 145.112 16.16C147.299 16.16 149.112 16.44 150.552 17C151.992 17.56 153.059 18.4533 153.752 19.68C154.472 20.88 154.832 22.4933 154.832 24.52V38H151.112ZM144.112 38.56C142.539 38.56 141.165 38.2933 139.992 37.76C138.819 37.2 137.912 36.4 137.272 35.36C136.632 34.2933 136.312 33.0267 136.312 31.56C136.312 30.0133 136.672 28.7333 137.392 27.72C138.139 26.7067 139.192 25.9467 140.552 25.44C141.912 24.9333 143.539 24.68 145.432 24.68H150.832V27.76H145.312C143.899 27.76 142.819 28.1067 142.072 28.8C141.325 29.4667 140.952 30.3467 140.952 31.44C140.952 32.5333 141.325 33.4133 142.072 34.08C142.819 34.72 143.899 35.04 145.312 35.04C146.139 35.04 146.925 34.8933 147.672 34.6C148.419 34.28 149.032 33.76 149.512 33.04C150.019 32.32 150.299 31.3067 150.352 30L151.552 31.56C151.419 33.08 151.045 34.36 150.432 35.4C149.845 36.4133 149.019 37.2 147.952 37.76C146.912 38.2933 145.632 38.56 144.112 38.56ZM161.354 38V16.44H165.074V25.68H164.634C164.634 23.5467 164.914 21.7467 165.474 20.28C166.061 18.8133 166.941 17.7067 168.114 16.96C169.287 16.1867 170.741 15.8 172.474 15.8H172.674C175.341 15.8 177.327 16.64 178.634 18.32C179.941 20 180.594 22.4533 180.594 25.68V38H175.914V25.04C175.914 23.5467 175.487 22.3467 174.634 21.44C173.781 20.5067 172.607 20.04 171.114 20.04C169.594 20.04 168.367 20.52 167.434 21.48C166.501 22.4133 166.034 23.6667 166.034 25.24V38H161.354ZM200.096 38V31.56H199.336V24.28C199.336 22.9467 198.99 21.9333 198.296 21.24C197.603 20.5467 196.576 20.2 195.216 20.2C194.47 20.2 193.643 20.2133 192.736 20.24C191.83 20.2667 190.936 20.3067 190.056 20.36C189.203 20.3867 188.443 20.4267 187.776 20.48V16.44C188.363 16.3867 189.003 16.3467 189.696 16.32C190.416 16.2667 191.15 16.2267 191.896 16.2C192.67 16.1733 193.403 16.16 194.096 16.16C196.283 16.16 198.096 16.44 199.536 17C200.976 17.56 202.043 18.4533 202.736 19.68C203.456 20.88 203.816 22.4933 203.816 24.52V38H200.096ZM193.096 38.56C191.523 38.56 190.15 38.2933 188.976 37.76C187.803 37.2 186.896 36.4 186.256 35.36C185.616 34.2933 185.296 33.0267 185.296 31.56C185.296 30.0133 185.656 28.7333 186.376 27.72C187.123 26.7067 188.176 25.9467 189.536 25.44C190.896 24.9333 192.523 24.68 194.416 24.68H199.816V27.76H194.296C192.883 27.76 191.803 28.1067 191.056 28.8C190.31 29.4667 189.936 30.3467 189.936 31.44C189.936 32.5333 190.31 33.4133 191.056 34.08C191.803 34.72 192.883 35.04 194.296 35.04C195.123 35.04 195.91 34.8933 196.656 34.6C197.403 34.28 198.016 33.76 198.496 33.04C199.003 32.32 199.283 31.3067 199.336 30L200.536 31.56C200.403 33.08 200.03 34.36 199.416 35.4C198.83 36.4133 198.003 37.2 196.936 37.76C195.896 38.2933 194.616 38.56 193.096 38.56Z" fill="white"/>
<defs>
<clipPath id="clip0_12003_162">
<rect width="48" height="48" fill="white"/>
</clipPath>
</defs>
</svg>
