<svg width="24" height="24" viewBox="0 0 24 24" fill="none" xmlns="http://www.w3.org/2000/svg">
<g clip-path="url(#clip0_284_2145)">
<rect width="24" height="24" fill="#3B5998"/>
<mask id="mask0_284_2145" style="mask-type:luminance" maskUnits="userSpaceOnUse" x="0" y="0" width="24" height="24">
<path d="M24 0H0V24H24V0Z" fill="white"/>
</mask>
<g mask="url(#mask0_284_2145)">
<path d="M12 24C18.6274 24 24 18.6274 24 12C24 5.37258 18.6274 0 12 0C5.37258 0 0 5.37258 0 12C0 18.6274 5.37258 24 12 24Z" fill="#3B5998"/>
<path d="M15.0163 12.4706H12.875V20.3152H9.63083V12.4706H8.08789V9.71376H9.63083V7.92974C9.63083 6.65397 10.2368 4.65625 12.9039 4.65625L15.307 4.6663V7.34233H13.5634C13.2774 7.34233 12.8752 7.48523 12.8752 8.09381V9.71632H15.2997L15.0163 12.4706Z" fill="#3B5998"/>
</g>
</g>
<defs>
<clipPath id="clip0_284_2145">
<rect width="24" height="24" fill="white"/>
</clipPath>
</defs>
</svg>
