<svg width="48" height="48" viewBox="0 0 48 48" fill="none" xmlns="http://www.w3.org/2000/svg">
<g clip-path="url(#clip0_12003_186)">
<path opacity="0.9" d="M23.9351 1.00009C20.8828 0.991983 17.8591 1.58323 15.0392 2.73962C12.2192 3.89602 9.65895 5.59459 7.50648 7.73705C6.25306 8.97587 5.14586 10.3516 4.20618 11.8379C5.33295 12.0886 6.44125 12.4146 7.52346 12.8138C11.1224 7.65439 17.1363 4.26735 23.9351 4.26735C27.9227 4.26239 31.8191 5.44817 35.1153 7.6698C36.4096 7.21716 37.7306 6.84286 39.0708 6.54896C34.8655 2.95465 29.4908 0.984245 23.9351 1.00009ZM46.8269 20.0432C45.9945 21.5403 45.0017 22.9443 43.8656 24.2309C43.7403 35.0064 34.8478 43.7335 23.9351 43.7335C19.6436 43.7281 15.4681 42.3544 12.0269 39.8159C8.58577 37.2774 6.06205 33.7092 4.82959 29.6397C3.10978 28.195 1.706 26.4179 0.704224 24.4173C0.796331 30.3764 3.2374 36.0639 7.50648 40.2659C8.75818 41.5067 10.1481 42.6028 11.6495 43.5332C14.0855 45.0428 16.7864 46.0855 19.6116 46.6071C21.0373 46.8708 22.4846 47.0033 23.9351 47.0029C26.9863 47.0029 30.0076 46.4079 32.8266 45.2518C35.6455 44.0958 38.2068 42.4013 40.3642 40.2653C42.5216 38.1292 44.2329 35.5933 45.4003 32.8025C46.5677 30.0116 47.1684 27.0204 47.168 23.9997C47.1686 22.6737 47.0544 21.35 46.8269 20.0432Z" fill="#0B5755"/>
<path opacity="0.9" d="M23.9351 1.00009C20.8828 0.991983 17.8591 1.58323 15.0392 2.73962C12.2192 3.89602 9.65895 5.59459 7.50648 7.73705C6.25306 8.97587 5.14586 10.3516 4.20618 11.8379C5.33295 12.0886 6.44125 12.4146 7.52346 12.8138C11.1224 7.65439 17.1363 4.26735 23.9351 4.26735C27.9227 4.26239 31.8191 5.44817 35.1153 7.6698C36.4096 7.21716 37.7306 6.84286 39.0708 6.54896C34.8655 2.95465 29.4908 0.984245 23.9351 1.00009ZM46.8269 20.0432C45.9945 21.5403 45.0017 22.9443 43.8656 24.2309C43.7403 35.0064 34.8478 43.7335 23.9351 43.7335C19.6436 43.7281 15.4681 42.3544 12.0269 39.8159C8.58577 37.2774 6.06205 33.7092 4.82959 29.6397C3.10978 28.195 1.706 26.4179 0.704224 24.4173C0.796331 30.3764 3.2374 36.0639 7.50648 40.2659C8.75818 41.5067 10.1481 42.6028 11.6495 43.5332C14.0855 45.0428 16.7864 46.0855 19.6116 46.6071C21.0373 46.8708 22.4846 47.0033 23.9351 47.0029C26.9863 47.0029 30.0076 46.4079 32.8266 45.2518C35.6455 44.0958 38.2068 42.4013 40.3642 40.2653C42.5216 38.1292 44.2329 35.5933 45.4003 32.8025C46.5677 30.0116 47.1684 27.0204 47.168 23.9997C47.1686 22.6737 47.0544 21.35 46.8269 20.0432Z" fill="#A2F7B4"/>
<path opacity="0.9" d="M17.7612 42.7647C17.7655 43.844 17.8157 44.9524 17.9119 46.0901L13.35 44.1987C13.2533 43.0213 13.2245 41.8395 13.2636 40.6589C13.442 35.0547 15.0921 29.1822 18.1242 23.9563C19.6543 24.2157 21.2039 24.3458 22.7562 24.3451C22.8893 24.3451 23.0209 24.3451 23.1532 24.3451C19.9208 28.9461 17.7315 35.1402 17.7612 42.7647Z" fill="#0B5755"/>
<path opacity="0.9" d="M21.7309 31.2822C22.9409 28.7786 24.3448 26.3786 26.0629 24.1488C36.1109 22.9453 44.4742 16.3295 48.0901 7.33618H48.1453C48.7821 21.4097 36.7945 32.3316 21.7309 31.2822Z" fill="#0B5755"/>
<path opacity="0.9" d="M5.44664 20.0908C5.3589 20.0655 5.27045 20.0422 5.18129 20.0207L5.91437 20.9314L13.2452 30.0207V31.0189C13.131 31.3874 13.023 31.7573 12.9211 32.1286C10.3737 31.316 8.13981 30.2007 6.28091 28.7184C5.52015 28.115 4.81927 27.4411 4.1878 26.7058C2.73296 25.0119 1.64041 22.9685 0.963935 20.5188C0.598081 19.1672 0.361172 17.7846 0.256325 16.3892C0.163807 15.1959 0.142544 13.9983 0.192643 12.8025L0.415537 12.8319C4.14043 18.1001 9.6416 21.88 15.9299 23.4918L14.1991 27.3965C12.227 23.9163 9.57696 21.4421 6.04245 20.275C5.97594 20.2526 5.90942 20.2309 5.8422 20.2105L5.81531 20.2021C5.7495 20.1811 5.68298 20.1615 5.61647 20.1419C5.54995 20.1223 5.50325 20.1083 5.44664 20.0908Z" fill="#0B5755"/>
<path opacity="0.9" d="M16.1082 23.0896L15.9299 23.4917C9.64192 21.878 4.14174 18.0964 0.418396 12.8269C0.833055 12.8815 1.24465 12.9418 1.65318 13.0076C2.22492 13.101 2.78936 13.205 3.34649 13.3194C4.45768 13.5482 5.55201 13.8511 6.62201 14.2259C7.148 14.4127 7.66243 14.6195 8.16531 14.8465C11.496 16.359 14.2847 18.85 16.1082 23.0896Z" fill="#0B5755"/>
<path opacity="0.9" d="M48.0879 7.33476C44.4721 16.3295 36.1088 22.9453 26.0608 24.1474C28.8487 20.5278 32.4653 17.3523 37.4292 14.9004C32.5573 15.4973 27.084 18.7414 23.1518 24.3442C23.0195 24.3442 22.8878 24.3442 22.7548 24.3442C21.2025 24.3449 19.6529 24.2148 18.1228 23.9554C23.6712 14.394 33.8431 6.9908 48.0879 7.33476Z" fill="#0B5755"/>
</g>
<defs>
<clipPath id="clip0_12003_186">
<rect width="48" height="48" fill="white"/>
</clipPath>
</defs>
</svg>
