<svg width="207" height="48" viewBox="0 0 207 48" fill="none" xmlns="http://www.w3.org/2000/svg">
<path d="M24.2698 10.1548C26.8968 11.9086 27.7033 15.6316 25.8682 18.1461C24.9464 19.4077 24.8584 20.6879 25.0589 22.3514C26.7367 18.6542 29.0983 16.2086 33.4263 16.4956C33.487 17.6971 33.1599 18.8865 32.4929 19.8899C31.183 21.9495 29.2037 22.9441 26.8478 23.3345C25.1166 23.6215 25.0055 24.2416 25.0546 25.4012C25.1137 26.7546 25.069 28.1124 25.069 29.572C30.0822 27.3747 35.2628 26.558 40.5963 26.6872C43.0329 26.746 45.4653 26.9914 48 27.1594C47.8687 28.1052 47.7649 28.8458 47.6509 29.6552C46.478 29.5921 45.3628 29.5117 44.2462 29.4744C36.5078 29.1716 29.1402 30.5307 22.3352 34.3542C21.9875 34.5494 21.7581 34.535 21.435 34.3183C15.4047 30.3241 8.7093 29.0395 1.58403 29.5361C0.245248 29.6294 0.242361 29.6423 0.0490453 28.3248C0.0144216 28.0908 0.0187545 27.8512 0 27.5225C3.93845 26.5953 7.89999 26.6513 11.8759 26.9312C15.875 27.211 19.7485 28.0219 23.5124 29.671C23.5124 27.8325 23.6004 26.0829 23.472 24.3607C23.4172 23.6187 22.4939 23.5656 21.8851 23.3632C20.9791 23.0632 19.9995 22.9326 19.144 22.5379C16.7665 21.4271 15.2719 19.6086 15.0065 16.9262C14.995 16.8114 15.0065 16.6937 15.0065 16.5157C19.4383 16.1182 21.8418 18.5997 23.4792 22.2724C23.4893 20.9908 23.9004 19.7206 22.9267 18.5839C20.7482 16.0478 21.4681 12.2904 24.2698 10.1548Z" fill="white"/>
<path d="M12.6719 45.2358C21.8414 34.6625 33.4894 30.6381 47.2494 31.2309C46.7762 32.3791 46.3838 33.3837 45.9178 34.3683C45.8385 34.5348 45.4288 34.6065 45.1677 34.6166C41.9433 34.7357 38.7507 35.0888 35.6389 35.97C29.0359 37.8358 23.6418 41.454 19.6067 47.0213C19.4624 47.2265 19.096 47.4518 18.8854 47.4145C16.7964 46.9696 14.7969 46.2448 12.6719 45.2358Z" fill="#A2F7B4"/>
<path d="M10.8817 44.1898C6.21614 41.4772 2.40466 36.2544 1.03125 31.7133C5.19764 30.4403 15.6309 32.7022 19.8319 35.8296C16.3359 38.0178 13.2969 40.8564 10.8817 44.1898Z" fill="white"/>
<path d="M21.6719 47.8505C27.6171 40.4074 35.6065 37.346 44.7716 36.3442C40.3528 43.849 31.5036 48.9556 21.6719 47.8505Z" fill="#A2F7B4"/>
<path d="M34.302 10.5724C33.2475 10.5724 32.8031 9.77732 33.272 9.031C33.8692 8.07944 34.5545 7.18242 35.2282 6.2811C35.6725 5.68691 36.1443 5.11139 36.6362 4.55883C37.0532 4.08664 37.6822 4.01631 38.1106 4.36937C38.6026 4.77267 38.6444 5.2951 38.2939 5.77733C37.2508 7.21256 36.189 8.6277 35.0926 10.0199C34.8632 10.3083 34.4607 10.4648 34.302 10.5724Z" fill="#A2F7B4"/>
<path d="M25.3605 3.87866C25.3605 4.71396 25.3706 5.54927 25.3605 6.38457C25.349 7.11367 24.9277 7.5629 24.2958 7.55859C23.6639 7.55428 23.2124 7.09645 23.2109 6.38457C23.2109 4.691 23.2109 2.99456 23.2528 1.30099C23.2744 0.408281 23.6423 -0.0194172 24.2626 0.00067602C24.883 0.0207692 25.3187 0.551802 25.3389 1.37132C25.3591 2.19083 25.3389 3.04336 25.3389 3.87866H25.3605Z" fill="#A2F7B4"/>
<path d="M9.32877 16.9322C9.34175 17.8694 8.66517 18.4206 8.0203 18.1192C6.30451 17.3183 4.60889 16.4753 2.93348 15.5903C2.2915 15.2501 2.11695 14.5928 2.43866 14.1364C2.8152 13.6025 3.33022 13.5623 3.90007 13.8393C5.51152 14.6387 7.13594 15.4181 8.73008 16.2476C9.02726 16.4041 9.20614 16.7858 9.32877 16.9322Z" fill="#A2F7B4"/>
<path d="M45.8702 15.0026C45.7534 15.1548 45.5817 15.5667 45.2787 15.7403C43.7639 16.6015 42.2251 17.4253 40.6622 18.2118C40.0101 18.5419 39.3927 18.275 39.1085 17.6478C38.807 16.9847 39.1749 16.6087 39.7101 16.3302C41.2566 15.5251 42.7959 14.7041 44.3641 13.9391C45.1359 13.5631 45.8543 13.998 45.8702 15.0026Z" fill="#A2F7B4"/>
<path d="M11.3804 3.89502C11.5463 4.00984 11.9575 4.16628 12.1725 4.45906C13.1664 5.7723 14.1128 7.11998 15.0679 8.46192C15.2044 8.65732 15.3168 8.86839 15.4026 9.09054C15.5959 9.58713 15.4502 10.0694 14.9885 10.2387C14.6538 10.3593 14.0176 10.3205 13.8431 10.0952C12.6384 8.55807 11.4757 6.98219 10.3908 5.35895C9.94069 4.68296 10.4095 3.92659 11.3804 3.89502Z" fill="#A2F7B4"/>
<path d="M77.4216 38.72C74.7816 38.72 72.5016 38.2667 70.5816 37.36C68.6882 36.4267 67.1149 35.2 65.8616 33.68C64.6082 32.16 63.6749 30.5333 63.0616 28.8C62.4749 27.04 62.1816 25.36 62.1816 23.76V22.88C62.1816 21.12 62.4882 19.36 63.1016 17.6C63.7416 15.84 64.6882 14.24 65.9416 12.8C67.2216 11.3333 68.8082 10.16 70.7016 9.28C72.6216 8.4 74.8616 7.96 77.4216 7.96C79.9816 7.96 82.2082 8.4 84.1016 9.28C85.9949 10.16 87.5816 11.3333 88.8616 12.8C90.1416 14.24 91.0882 15.84 91.7016 17.6C92.3416 19.36 92.6616 21.12 92.6616 22.88V23.76C92.6616 25.36 92.3549 27.04 91.7416 28.8C91.1282 30.5333 90.1949 32.16 88.9416 33.68C87.7149 35.2 86.1416 36.4267 84.2216 37.36C82.3016 38.2667 80.0349 38.72 77.4216 38.72ZM77.4216 34.28C79.0216 34.28 80.4616 33.9867 81.7416 33.4C83.0216 32.8133 84.1149 32.0133 85.0216 31C85.9282 29.9867 86.6082 28.8267 87.0616 27.52C87.5416 26.2133 87.7816 24.8267 87.7816 23.36C87.7816 21.8133 87.5416 20.3867 87.0616 19.08C86.5816 17.7467 85.8882 16.5867 84.9816 15.6C84.1016 14.5867 83.0216 13.8 81.7416 13.24C80.4616 12.68 79.0216 12.4 77.4216 12.4C75.8216 12.4 74.3816 12.68 73.1016 13.24C71.8216 13.8 70.7282 14.5867 69.8216 15.6C68.9149 16.5867 68.2216 17.7467 67.7416 19.08C67.2882 20.3867 67.0616 21.8133 67.0616 23.36C67.0616 24.8267 67.2882 26.2133 67.7416 27.52C68.2216 28.8267 68.9149 29.9867 69.8216 31C70.7282 32.0133 71.8216 32.8133 73.1016 33.4C74.3816 33.9867 75.8216 34.28 77.4216 34.28ZM98.1509 38V16.44H101.871V25.44H101.711C101.711 22.3467 102.391 20.04 103.751 18.52C105.111 16.9733 107.124 16.2 109.791 16.2H110.551V20.32H109.111C107.084 20.32 105.524 20.8667 104.431 21.96C103.364 23.0267 102.831 24.56 102.831 26.56V38H98.1509ZM119.857 38L112.817 16.44H117.697L124.497 38H119.857ZM121.177 38V34.2H126.417V38H121.177ZM123.177 38L129.097 16.44H133.657L127.537 38H123.177ZM151.112 38V31.56H150.352V24.28C150.352 22.9467 150.005 21.9333 149.312 21.24C148.619 20.5467 147.592 20.2 146.232 20.2C145.485 20.2 144.659 20.2133 143.752 20.24C142.845 20.2667 141.952 20.3067 141.072 20.36C140.219 20.3867 139.459 20.4267 138.792 20.48V16.44C139.379 16.3867 140.019 16.3467 140.712 16.32C141.432 16.2667 142.165 16.2267 142.912 16.2C143.685 16.1733 144.419 16.16 145.112 16.16C147.299 16.16 149.112 16.44 150.552 17C151.992 17.56 153.059 18.4533 153.752 19.68C154.472 20.88 154.832 22.4933 154.832 24.52V38H151.112ZM144.112 38.56C142.539 38.56 141.165 38.2933 139.992 37.76C138.819 37.2 137.912 36.4 137.272 35.36C136.632 34.2933 136.312 33.0267 136.312 31.56C136.312 30.0133 136.672 28.7333 137.392 27.72C138.139 26.7067 139.192 25.9467 140.552 25.44C141.912 24.9333 143.539 24.68 145.432 24.68H150.832V27.76H145.312C143.899 27.76 142.819 28.1067 142.072 28.8C141.325 29.4667 140.952 30.3467 140.952 31.44C140.952 32.5333 141.325 33.4133 142.072 34.08C142.819 34.72 143.899 35.04 145.312 35.04C146.139 35.04 146.925 34.8933 147.672 34.6C148.419 34.28 149.032 33.76 149.512 33.04C150.019 32.32 150.299 31.3067 150.352 30L151.552 31.56C151.419 33.08 151.045 34.36 150.432 35.4C149.845 36.4133 149.019 37.2 147.952 37.76C146.912 38.2933 145.632 38.56 144.112 38.56ZM161.354 38V16.44H165.074V25.68H164.634C164.634 23.5467 164.914 21.7467 165.474 20.28C166.061 18.8133 166.941 17.7067 168.114 16.96C169.287 16.1867 170.741 15.8 172.474 15.8H172.674C175.341 15.8 177.327 16.64 178.634 18.32C179.941 20 180.594 22.4533 180.594 25.68V38H175.914V25.04C175.914 23.5467 175.487 22.3467 174.634 21.44C173.781 20.5067 172.607 20.04 171.114 20.04C169.594 20.04 168.367 20.52 167.434 21.48C166.501 22.4133 166.034 23.6667 166.034 25.24V38H161.354ZM200.096 38V31.56H199.336V24.28C199.336 22.9467 198.99 21.9333 198.296 21.24C197.603 20.5467 196.576 20.2 195.216 20.2C194.47 20.2 193.643 20.2133 192.736 20.24C191.83 20.2667 190.936 20.3067 190.056 20.36C189.203 20.3867 188.443 20.4267 187.776 20.48V16.44C188.363 16.3867 189.003 16.3467 189.696 16.32C190.416 16.2667 191.15 16.2267 191.896 16.2C192.67 16.1733 193.403 16.16 194.096 16.16C196.283 16.16 198.096 16.44 199.536 17C200.976 17.56 202.043 18.4533 202.736 19.68C203.456 20.88 203.816 22.4933 203.816 24.52V38H200.096ZM193.096 38.56C191.523 38.56 190.15 38.2933 188.976 37.76C187.803 37.2 186.896 36.4 186.256 35.36C185.616 34.2933 185.296 33.0267 185.296 31.56C185.296 30.0133 185.656 28.7333 186.376 27.72C187.123 26.7067 188.176 25.9467 189.536 25.44C190.896 24.9333 192.523 24.68 194.416 24.68H199.816V27.76H194.296C192.883 27.76 191.803 28.1067 191.056 28.8C190.31 29.4667 189.936 30.3467 189.936 31.44C189.936 32.5333 190.31 33.4133 191.056 34.08C191.803 34.72 192.883 35.04 194.296 35.04C195.123 35.04 195.91 34.8933 196.656 34.6C197.403 34.28 198.016 33.76 198.496 33.04C199.003 32.32 199.283 31.3067 199.336 30L200.536 31.56C200.403 33.08 200.03 34.36 199.416 35.4C198.83 36.4133 198.003 37.2 196.936 37.76C195.896 38.2933 194.616 38.56 193.096 38.56Z" fill="white"/>
</svg>
