<svg width="24" height="16" viewBox="0 0 24 16" fill="none" xmlns="http://www.w3.org/2000/svg">
<g clip-path="url(#clip0_284_2243)">
<mask id="mask0_284_2243" style="mask-type:luminance" maskUnits="userSpaceOnUse" x="0" y="0" width="24" height="16">
<path d="M24 0H0V16H24V0Z" fill="white"/>
</mask>
<g mask="url(#mask0_284_2243)">
<path d="M23.7614 14.5312C23.7614 15.2774 23.1565 15.8824 22.4103 15.8824H2.25541C1.50921 15.8824 0.904297 15.2774 0.904297 14.5312V1.4703C0.904297 0.724096 1.50921 0.119141 2.25541 0.119141H22.4103C23.1566 0.119141 23.7614 0.724096 23.7614 1.4703V14.5312Z" fill="#F6F6F6"/>
<path opacity="0.15" d="M1.86488 14.5312V1.4703C1.86488 0.724096 2.46988 0.119141 3.21608 0.119141H2.25537C1.50921 0.119141 0.904297 0.724052 0.904297 1.4703V14.5312C0.904297 15.2775 1.50921 15.8824 2.25541 15.8824H3.21613C2.46992 15.8824 1.86488 15.2774 1.86488 14.5312Z" fill="#F6F6F6" fill-opacity="0.964706"/>
<path d="M4.23242 6.42584H4.91537L4.57398 5.55664L4.23242 6.42584Z" fill="#F7F7F7"/>
<path d="M7.86719 9.3457V9.74931H9.0158V10.184H7.86719V10.6498H9.13991L9.72969 9.99771L9.17098 9.3457H7.86719Z" fill="#F7F7F7"/>
<path d="M16.8393 5.55664L16.4668 6.42584H17.1809L16.8393 5.55664Z" fill="#F7F7F7"/>
<path d="M11.188 10.8963V9.12695L10.3809 9.99619L11.188 10.8963Z" fill="#F7F7F7"/>
<path d="M12.7083 9.62521C12.6772 9.43896 12.5529 9.3457 12.3666 9.3457H11.7148V9.90445H12.3978C12.584 9.90449 12.7083 9.81141 12.7083 9.62521Z" fill="#F7F7F7"/>
<path d="M14.8809 9.84067C14.943 9.80955 14.9741 9.71634 14.9741 9.62339C15.0052 9.49933 14.943 9.43714 14.8809 9.40607C14.819 9.375 14.7257 9.375 14.6327 9.375H14.0117V9.87174H14.6327C14.7256 9.87174 14.8189 9.87174 14.8809 9.84067Z" fill="#F7F7F7"/>
<path d="M19.3516 4.75195V5.12445L19.1655 4.75195H17.7066V5.12445L17.5203 4.75195H15.5336C15.1922 4.75195 14.9126 4.81409 14.6644 4.93824V4.75195H13.2676V4.78302V4.93824C13.1124 4.81413 12.9262 4.75195 12.6778 4.75195H7.68005L7.33845 5.52802L6.99706 4.75195H5.87961H5.41394V5.12445L5.25872 4.75195H5.22764H3.89287L3.27193 6.21088L2.55805 7.794L2.54492 7.82512H2.55805H4.14122H4.16104L4.17229 7.794L4.35863 7.32846H4.76215L4.9484 7.82512H6.74867V7.794V7.45262L6.90398 7.82507H7.80412L7.95925 7.45262V7.794V7.82512H8.67322H12.2431H12.2742V7.01797H12.3364C12.3984 7.01797 12.3984 7.01797 12.3984 7.11114V7.79405H14.6334V7.6078C14.8197 7.70105 15.0989 7.79405 15.4714 7.79405H16.4028L16.5891 7.29748H17.0235L17.2098 7.79405H19.0101V7.48369V7.32851L19.2896 7.79405H19.3516H19.3827H20.7486V4.75195H19.3516ZM8.82854 7.35958H8.51805H8.33184V7.17346V5.65221L8.30077 5.72342L7.57863 7.35958H7.55577H7.38974H7.12113L6.37617 5.65221V7.35958H5.32081L5.10354 6.89396H4.048L3.83068 7.35958H3.28501L4.20331 5.18659H4.9793L5.84845 7.26637V5.18659H6.03465H6.67086L6.6855 5.21771H6.68657L7.07823 6.07012L7.35947 6.70878L7.36943 6.67659L7.99023 5.18663H8.82849L8.82854 7.35958ZM10.9705 5.65221H9.75983V6.05574H10.9394V6.49029H9.75983V6.92503H10.9705V7.39052H9.23215V5.18663H10.9705V5.65221ZM13.1846 6.45266C13.1854 6.45338 13.1864 6.45387 13.1874 6.45454C13.1991 6.46695 13.2092 6.4794 13.2177 6.49132C13.2772 6.56927 13.3253 6.68521 13.3277 6.85521C13.3279 6.85815 13.328 6.86105 13.3282 6.864C13.3282 6.8657 13.3285 6.86717 13.3285 6.86891C13.3285 6.86989 13.3284 6.87065 13.3284 6.87159C13.3291 6.88869 13.3296 6.90614 13.3296 6.92503V7.35963H12.864V7.11119C12.864 6.98704 12.864 6.80074 12.7708 6.67659C12.7414 6.64726 12.7118 6.62793 12.6794 6.61418C12.6329 6.58405 12.5447 6.58355 12.3984 6.58355H11.8395V7.35963H11.3119V5.18663H12.4916C12.7708 5.18663 12.9571 5.18663 13.1124 5.27976C13.2645 5.3711 13.3563 5.52257 13.3598 5.76244C13.3526 6.09279 13.1406 6.27404 12.9881 6.33516C12.9881 6.33516 13.0917 6.35601 13.1846 6.45266ZM14.2299 7.35958H13.7021V5.18659H14.2299V7.35958ZM20.2831 7.35958H19.6001L18.6067 5.71427V7.08012L18.6035 7.0769V7.36092H18.0791V7.35963H17.5513L17.3651 6.894H16.2785L16.0922 7.39056H15.5025C15.2543 7.39056 14.9437 7.32855 14.7575 7.1423C14.5713 6.95605 14.4782 6.70771 14.4782 6.30422C14.4782 5.99382 14.5402 5.6832 14.7575 5.43494C14.9126 5.24855 15.1921 5.18663 15.5335 5.18663H16.0303V5.65221H15.5335C15.3472 5.65221 15.2543 5.68315 15.1299 5.77646C15.0369 5.86954 14.9748 6.05574 14.9748 6.27302C14.9748 6.52141 15.0059 6.67659 15.1299 6.80074C15.2232 6.894 15.3473 6.92507 15.5025 6.92507H15.7197L16.4336 5.21779H16.7442H17.2097L18.079 7.29757V7.1915V6.49038V6.42838V5.21784H18.855L19.7551 6.73882V5.21784H20.283L20.2831 7.35958Z" fill="#F7F7F7"/>
<path d="M12.7423 6.08981C12.7514 6.08012 12.7596 6.06914 12.7666 6.05655C12.7947 6.01204 12.8269 5.93186 12.8096 5.82244C12.8089 5.8124 12.807 5.80311 12.8049 5.79414C12.8043 5.79164 12.8044 5.78945 12.8037 5.78695C12.7883 5.73378 12.7485 5.70115 12.7092 5.68133C12.647 5.65039 12.5539 5.65039 12.4608 5.65039H11.8398V6.14713H12.4608C12.5539 6.14713 12.647 6.14713 12.7092 6.11602C12.7185 6.11128 12.7269 6.10485 12.7348 6.09758C12.7349 6.09754 12.7381 6.09463 12.7423 6.08981Z" fill="#F7F7F7"/>
<path d="M22.1165 10.4628C22.1165 10.2456 22.0545 10.0282 21.9614 9.87298V8.47615H21.96V8.38289C21.96 8.38289 20.6589 8.38289 20.4652 8.38289C20.2717 8.38289 20.0367 8.5691 20.0367 8.5691V8.38289H18.6089C18.3915 8.38289 18.1123 8.44504 17.9879 8.5691V8.38289H15.4426V8.47615V8.56906C15.2565 8.41397 14.9147 8.38285 14.7596 8.38285H13.0833V8.47611V8.56901C12.9282 8.41392 12.5555 8.38281 12.3692 8.38281H10.5069L10.0722 8.84848L9.66866 8.38281H9.53871H9.32723H6.875V8.47606V8.72129V11.5182H9.6067L10.0555 11.0693L10.4446 11.5182H10.4758H12.0498H12.1211H12.1522H12.1831V11.2078V10.8043H12.3384C12.5555 10.8043 12.835 10.8043 13.0523 10.7111V11.487V11.5493H14.4492V11.487V10.7421H14.5111C14.6044 10.7421 14.6044 10.7421 14.6044 10.8352V11.487V11.5493H18.8259C19.1055 11.5493 19.3847 11.487 19.5399 11.3629V11.487V11.5493H20.8748C21.154 11.5493 21.4336 11.5182 21.6199 11.394C21.9057 11.2225 22.0858 10.919 22.1126 10.557C22.1138 10.5463 22.1154 10.5356 22.1164 10.5248L22.1146 10.5231C22.1157 10.503 22.1165 10.4831 22.1165 10.4628ZM12.3384 10.2766H11.7175V10.3695V10.5559V10.7422V11.0836H10.6971L10.1033 10.4006L10.1012 10.4029L10.0722 10.3695L9.38933 11.0836H7.40268V8.91071H9.4204L9.97165 9.5145L10.0875 9.64093L10.1033 9.62464L10.7552 8.91075H12.4004C12.7197 8.91075 13.0772 8.98955 13.2127 9.31441C13.229 9.37874 13.2385 9.45026 13.2385 9.53151C13.2385 10.1523 12.8039 10.2766 12.3384 10.2766ZM15.4426 10.2455C15.5046 10.3384 15.5357 10.4628 15.5357 10.6491V11.0836H15.008V10.8043C15.008 10.6799 15.008 10.4628 14.9148 10.3695C14.8529 10.2766 14.7285 10.2766 14.5424 10.2766H13.9837V11.0836H13.456V8.87964H14.6355C14.8837 8.87964 15.101 8.87964 15.2565 8.97267C15.4116 9.06589 15.5357 9.22111 15.5357 9.46946C15.5357 9.81084 15.3185 9.99709 15.1632 10.0593C15.3185 10.1211 15.4116 10.1834 15.4426 10.2455ZM17.5846 9.34508H16.3738V9.74865H17.5534V10.1834H16.3738V10.618H17.5846V11.0836H15.8462V8.87959H17.5846V9.34508ZM18.8882 11.0836H17.8948V10.6181H18.8882C18.9812 10.6181 19.0434 10.6181 19.1056 10.5559C19.1367 10.5248 19.1675 10.4628 19.1675 10.4007C19.1675 10.3385 19.1367 10.2767 19.1056 10.2456C19.0745 10.2145 19.0123 10.1835 18.9192 10.1835C18.4225 10.1524 17.8327 10.1835 17.8327 9.50057C17.8327 9.19013 18.019 8.84861 18.5778 8.84861H19.6021V9.37624H18.6399C18.5468 9.37624 18.4846 9.37624 18.4225 9.40732C18.3605 9.43843 18.3605 9.50057 18.3605 9.56258C18.3605 9.65575 18.4225 9.68682 18.4846 9.71763C18.5468 9.74874 18.6088 9.74874 18.6708 9.74874H18.9502C19.2296 9.74874 19.4158 9.81084 19.54 9.93504C19.6332 10.0282 19.6953 10.1835 19.6953 10.4007C19.6953 10.8662 19.4159 11.0836 18.8882 11.0836ZM21.5578 10.8662C21.4338 10.9905 21.2164 11.0836 20.9058 11.0836H19.9127V10.6181H20.9058C20.999 10.6181 21.0612 10.6181 21.1232 10.5559C21.1542 10.5248 21.1853 10.4628 21.1853 10.4007C21.1853 10.3385 21.1542 10.2767 21.1232 10.2456C21.0921 10.2145 21.0301 10.1835 20.937 10.1835C20.4404 10.1524 19.8505 10.1835 19.8505 9.50062C19.8505 9.20557 20.0193 8.93906 20.4356 8.8599C20.4854 8.85303 20.5379 8.84861 20.5955 8.84861H21.62V9.37624H20.937H20.6887H20.6576C20.5645 9.37624 20.5025 9.37624 20.4404 9.40732C20.4092 9.43843 20.3781 9.50057 20.3781 9.56258C20.3781 9.65575 20.4092 9.68682 20.5025 9.71763C20.5645 9.74874 20.6266 9.74874 20.6887 9.74874H20.7196H20.968C21.1037 9.74874 21.2062 9.76548 21.3001 9.79848C21.3861 9.82959 21.6708 9.95691 21.7344 10.2893C21.74 10.3241 21.744 10.3605 21.744 10.4007C21.744 10.587 21.6819 10.7422 21.5578 10.8662Z" fill="#F7F7F7"/>
</g>
</g>
<defs>
<clipPath id="clip0_284_2243">
<rect width="24" height="16" fill="white"/>
</clipPath>
</defs>
</svg>
