<svg width="49" height="32" viewBox="0 0 49 32" fill="none" xmlns="http://www.w3.org/2000/svg">
<g clip-path="url(#clip0_284_2212)">
<mask id="mask0_284_2212" style="mask-type:luminance" maskUnits="userSpaceOnUse" x="0" y="0" width="49" height="32">
<path d="M49 0H0V32H49V0Z" fill="white"/>
</mask>
<g mask="url(#mask0_284_2212)">
<path opacity="0.07" d="M45.1316 0H3.86842C1.67632 0 0 1.73333 0 4V28C0 30.2667 1.80526 32 3.86842 32H45.1316C47.3237 32 49 30.2667 49 28V4C49 1.73333 47.1947 0 45.1316 0Z" fill="#F6F6F6"/>
<path d="M45.1312 1.33398C46.5496 1.33398 47.7101 2.53398 47.7101 4.00065V28.0006C47.7101 29.4673 46.5496 30.6673 45.1312 30.6673H3.86801C2.44959 30.6673 1.28906 29.4673 1.28906 28.0006V4.00065C1.28906 2.53398 2.44959 1.33398 3.86801 1.33398H45.1312Z" fill="#F7F7F7"/>
<path d="M30.8166 11.066C31.0745 9.73268 30.8166 8.79935 30.0429 7.99935C29.2692 7.06602 27.8508 6.66602 26.0455 6.66602H20.7587C20.3718 6.66602 20.1139 6.93268 19.985 7.33268L18.0508 20.7993C18.0508 21.066 18.1797 21.3327 18.4376 21.3327H21.9192L22.435 16.7993L24.756 13.866L30.8166 11.066Z" fill="#F6F6F6"/>
<path d="M30.8195 11.0684L30.5616 11.335C29.9169 15.0684 27.7247 16.4017 24.6299 16.4017H23.2115C22.8247 16.4017 22.5668 16.6684 22.4378 17.0684L21.6642 22.2684L21.4062 23.6017C21.4062 23.8684 21.5352 24.135 21.7931 24.135H24.501C24.8878 24.135 25.1458 23.8684 25.1458 23.6017V23.4684L25.6616 20.2684V20.135C25.6616 19.8684 26.0484 19.6017 26.3062 19.6017H26.6931C29.401 19.6017 31.4641 18.535 31.9799 15.335C32.2378 14.0017 32.1089 12.935 31.4641 12.135C31.3352 11.4684 31.0774 11.2017 30.8195 11.0684Z" fill="#F6F6F6"/>
<path d="M30.0454 10.8004C29.9164 10.6671 29.7875 10.6671 29.6586 10.6671C29.5296 10.6671 29.4007 10.6671 29.2717 10.5337C28.8849 10.4004 28.3691 10.4004 27.8533 10.4004H23.9849C23.8559 10.4004 23.727 10.4004 23.727 10.5337C23.4691 10.6671 23.3401 10.8004 23.3401 11.0671L22.4375 16.9337V17.0671C22.4375 16.6671 22.8243 16.4004 23.2112 16.4004H24.8875C28.1112 16.4004 30.1743 15.0671 30.8191 11.3337V11.0671C30.6901 10.9337 30.4322 10.8004 30.1743 10.8004H30.0454Z" fill="#F6F6F6"/>
</g>
</g>
<defs>
<clipPath id="clip0_284_2212">
<rect width="49" height="32" fill="white"/>
</clipPath>
</defs>
</svg>
