<svg width="50" height="32" viewBox="0 0 50 32" fill="none" xmlns="http://www.w3.org/2000/svg">
<g clip-path="url(#clip0_284_2202)">
<mask id="mask0_284_2202" style="mask-type:luminance" maskUnits="userSpaceOnUse" x="0" y="0" width="50" height="32">
<path d="M50 0H0V32H50V0Z" fill="white"/>
</mask>
<g mask="url(#mask0_284_2202)">
<path opacity="0.07" d="M46.0526 0H3.94737C1.71053 0 0 1.73333 0 4V28C0 30.2667 1.84211 32 3.94737 32H46.0526C48.2895 32 50 30.2667 50 28V4C50 1.73333 48.1579 0 46.0526 0Z" fill="#F6F6F6"/>
<path d="M46.0533 1.33398C47.5006 1.33398 48.6848 2.53398 48.6848 4.00065V28.0006C48.6848 29.4673 47.5006 30.6673 46.0533 30.6673H3.94799C2.50062 30.6673 1.31641 29.4673 1.31641 28.0006V4.00065C1.31641 2.53398 2.50062 1.33398 3.94799 1.33398H46.0533Z" fill="#F7F7F7"/>
<path d="M19.734 25.3327C24.8208 25.3327 28.9445 21.154 28.9445 15.9993C28.9445 10.8447 24.8208 6.66602 19.734 6.66602C14.6471 6.66602 10.5234 10.8447 10.5234 15.9993C10.5234 21.154 14.6471 25.3327 19.734 25.3327Z" fill="#F6F6F6"/>
<path d="M30.2652 25.3327C35.352 25.3327 39.4757 21.154 39.4757 15.9993C39.4757 10.8447 35.352 6.66602 30.2652 6.66602C25.1784 6.66602 21.0547 10.8447 21.0547 15.9993C21.0547 21.154 25.1784 25.3327 30.2652 25.3327Z" fill="#F6F6F6"/>
<path d="M28.9494 16.0004C28.9494 12.8004 27.3705 10.0004 25.0021 8.40039C22.6336 10.1337 21.0547 12.9337 21.0547 16.0004C21.0547 19.0671 22.6336 22.0004 25.0021 23.6004C27.3705 22.0004 28.9494 19.2004 28.9494 16.0004Z" fill="#F6F6F6"/>
</g>
</g>
<defs>
<clipPath id="clip0_284_2202">
<rect width="50" height="32" fill="white"/>
</clipPath>
</defs>
</svg>
