<svg width="49" height="32" viewBox="0 0 49 32" fill="none" xmlns="http://www.w3.org/2000/svg">
<g clip-path="url(#clip0_284_2189)">
<mask id="mask0_284_2189" style="mask-type:luminance" maskUnits="userSpaceOnUse" x="0" y="0" width="49" height="32">
<path d="M49 0H0V32H49V0Z" fill="white"/>
</mask>
<g mask="url(#mask0_284_2189)">
<path opacity="0.07" d="M45.1316 0H3.86842C1.67632 0 0 1.73333 0 4V28C0 30.2667 1.80526 32 3.86842 32H45.1316C47.3237 32 49 30.2667 49 28V4C49 1.73333 47.1947 0 45.1316 0Z" fill="#F6F6F6"/>
<path d="M45.1312 1.33398C46.5496 1.33398 47.7101 2.53398 47.7101 4.00065V28.0006C47.7101 29.4673 46.5496 30.6673 45.1312 30.6673H3.86801C2.44959 30.6673 1.28906 29.4673 1.28906 28.0006V4.00065C1.28906 2.53398 2.44959 1.33398 3.86801 1.33398H45.1312Z" fill="#F7F7F7"/>
<path d="M4.60261 9.54477H2.57812V16.8781H4.60261C5.67287 16.8781 6.44656 16.6114 7.12998 16.0381C7.94235 15.3448 8.41945 14.3048 8.41945 13.2248C8.40656 11.0514 6.84629 9.54477 4.60261 9.54477ZM6.22735 15.0648C5.78892 15.4648 5.23444 15.6514 4.33182 15.6514H3.95786V10.7981H4.33182C5.22155 10.7981 5.76313 10.9581 6.22735 11.3848C6.70445 11.8248 6.98812 12.5048 6.98812 13.2114C6.98812 13.9181 6.70445 14.6248 6.22735 15.0648ZM9.05128 9.54477H10.431V16.8781H9.05128V9.54477ZM13.8094 12.3581C12.9842 12.0381 12.7392 11.8248 12.7392 11.4381C12.7392 10.9714 13.1776 10.6248 13.7708 10.6248C14.1834 10.6248 14.5315 10.7981 14.8797 11.2248L15.6018 10.2514C15.0087 9.7181 14.2994 9.4381 13.5129 9.4381C12.2621 9.4381 11.295 10.3448 11.295 11.5448C11.295 12.5581 11.7463 13.0781 13.0358 13.5581C13.5773 13.7581 13.8481 13.8914 13.99 13.9714C14.2608 14.1581 14.4026 14.4248 14.4026 14.7314C14.4026 15.3314 13.9513 15.7714 13.3323 15.7714C12.6747 15.7714 12.146 15.4248 11.8237 14.7981L10.9339 15.6914C11.5658 16.6648 12.3394 17.0914 13.3839 17.0914C14.8152 17.0914 15.8339 16.1048 15.8339 14.6781C15.8597 13.4914 15.3826 12.9581 13.8094 12.3581ZM16.2852 13.2248C16.2852 15.3848 17.9229 17.0514 20.0247 17.0514C20.6179 17.0514 21.1337 16.9314 21.7526 16.6248V14.9448C21.1981 15.5181 20.7081 15.7448 20.0892 15.7448C18.6965 15.7448 17.7037 14.7048 17.7037 13.2114C17.7037 11.7981 18.7223 10.6914 20.0247 10.6914C20.6823 10.6914 21.1852 10.9314 21.7526 11.5181V9.8381C21.1465 9.5181 20.6437 9.38477 20.0505 9.38477C17.9744 9.38477 16.2852 11.0914 16.2852 13.2248ZM32.7389 14.4781L30.8434 9.54477H29.3347L32.3392 17.0648H33.0871L36.1431 9.54477H34.6473L32.7389 14.4781ZM36.775 16.8781H40.695V15.6381H38.1547V13.6648H40.6047V12.4248H38.1547V10.7981H40.695V9.54477H36.775V16.8781ZM46.1752 11.7181C46.1752 10.3448 45.2597 9.55809 43.6608 9.55809H41.6105V16.8914H42.9902V13.9448H43.1708L45.0792 16.8914H46.7813L44.5505 13.7981C45.595 13.5714 46.1752 12.8381 46.1752 11.7181ZM43.39 12.9314H42.9902V10.7048H43.4158C44.2797 10.7048 44.7439 11.0781 44.7439 11.7981C44.7439 12.5314 44.2797 12.9314 43.39 12.9314Z" fill="#F6F6F6"/>
<path d="M25.9943 17.1461C26.9967 17.1461 27.958 16.7343 28.6668 16.0015C29.3755 15.2686 29.7737 14.2745 29.7737 13.2381C29.7737 12.2016 29.3755 11.2076 28.6668 10.4747C27.958 9.74181 26.9967 9.33008 25.9943 9.33008C24.9919 9.33008 24.0306 9.74181 23.3218 10.4747C22.613 11.2076 22.2148 12.2016 22.2148 13.2381C22.2148 14.2745 22.613 15.2686 23.3218 16.0015C24.0306 16.7343 24.9919 17.1461 25.9943 17.1461Z" fill="#F6F6F6"/>
<path opacity="0.65" d="M25.9943 17.1461C26.9967 17.1461 27.958 16.7343 28.6668 16.0015C29.3755 15.2686 29.7737 14.2745 29.7737 13.2381C29.7737 12.2016 29.3755 11.2076 28.6668 10.4747C27.958 9.74181 26.9967 9.33008 25.9943 9.33008C24.9919 9.33008 24.0306 9.74181 23.3218 10.4747C22.613 11.2076 22.2148 12.2016 22.2148 13.2381C22.2148 14.2745 22.613 15.2686 23.3218 16.0015C24.0306 16.7343 24.9919 17.1461 25.9943 17.1461Z" fill="#F6F6F6"/>
<path d="M47.1572 10.0066C47.1572 9.87331 47.0668 9.80664 46.925 9.80664H46.7188V10.4466H46.8735V10.1933L47.054 10.4466H47.2345L47.0281 10.18C47.1055 10.1666 47.1572 10.1 47.1572 10.0066ZM46.8993 10.1H46.8735V9.92664H46.8993C46.9766 9.92664 47.0153 9.95331 47.0153 10.0066C47.0153 10.0733 46.9766 10.1 46.8993 10.1Z" fill="#F6F6F6"/>
<path d="M46.9478 9.56836C46.6512 9.56836 46.4062 9.82169 46.4062 10.1284C46.4062 10.435 46.6512 10.6884 46.9478 10.6884C47.2444 10.6884 47.4894 10.435 47.4894 10.1284C47.4894 9.82169 47.2444 9.56836 46.9478 9.56836ZM46.9478 10.595C46.7157 10.595 46.5094 10.395 46.5094 10.1284C46.5094 9.87503 46.7028 9.66169 46.9478 9.66169C47.1799 9.66169 47.3735 9.87503 47.3735 10.1284C47.3735 10.3817 47.1799 10.595 46.9478 10.595Z" fill="#F6F6F6"/>
<path d="M47.7104 17.3125C47.7104 17.3125 34.9317 26.4978 11.5742 30.6672H45.1302C45.8106 30.6672 46.4635 30.3892 46.9465 29.8937C47.4296 29.3982 47.7037 28.7254 47.7091 28.0218L47.7401 23.9952L47.7104 17.3125Z" fill="#F6F6F6"/>
</g>
</g>
<defs>
<clipPath id="clip0_284_2189">
<rect width="49" height="32" fill="white"/>
</clipPath>
</defs>
</svg>
