<svg width="50" height="16" viewBox="0 0 50 16" fill="none" xmlns="http://www.w3.org/2000/svg">
<g clip-path="url(#clip0_284_2233)">
<rect width="50" height="16" fill="#F6F6F6"/>
<path fill-rule="evenodd" clip-rule="evenodd" d="M12.5234 15.8749H8.30865L5.14809 3.46258C4.99807 2.89161 4.67955 2.38684 4.21102 2.14894C3.04173 1.55108 1.75326 1.07527 0.347656 0.835297V0.357422H7.13731C8.07438 0.357422 8.77718 1.07527 8.89431 1.90896L10.5342 10.8624L14.7469 0.357422H18.8445L12.5234 15.8749ZM21.1875 15.8749H17.207L20.4847 0.357422H24.4652L21.1875 15.8749ZM29.6143 4.6567C29.7314 3.82093 30.4342 3.34306 31.2542 3.34306C32.5426 3.22307 33.9462 3.46304 35.1175 4.05884L35.8203 0.717847C34.649 0.239972 33.3605 0 32.1912 0C28.3279 0 25.5167 2.1494 25.5167 5.1325C25.5167 7.40189 27.5079 8.59348 28.9136 9.31133C30.4342 10.0271 31.0199 10.505 30.9028 11.2208C30.9028 12.2944 29.7314 12.7723 28.5621 12.7723C27.1565 12.7723 25.7509 12.4144 24.4645 11.8166L23.7617 15.1596C25.1673 15.7554 26.688 15.9954 28.0936 15.9954C32.4255 16.1133 35.1175 13.966 35.1175 10.7429C35.1175 6.68405 29.6143 6.44614 29.6143 4.6567ZM49.0478 15.8749L45.8873 0.357422H42.4925C41.7897 0.357422 41.0868 0.835297 40.8526 1.55108L35 15.8749H39.0976L39.9155 13.6076H44.9502L45.4187 15.8749H49.0478ZM43.0791 4.53711L44.2484 10.3854H40.9707L43.0791 4.53711Z" fill="#F6F6F6"/>
</g>
<defs>
<clipPath id="clip0_284_2233">
<rect width="50" height="16" fill="white"/>
</clipPath>
</defs>
</svg>
