<svg width="23" height="16" viewBox="0 0 23 16" fill="none" xmlns="http://www.w3.org/2000/svg">
<g clip-path="url(#clip0_284_2152)">
<rect width="23" height="16" fill="#F6F6F6"/>
<mask id="mask0_284_2152" style="mask-type:luminance" maskUnits="userSpaceOnUse" x="0" y="0" width="23" height="16">
<path d="M23.0002 0H0.816406V16H23.0002V0Z" fill="white"/>
</mask>
<g mask="url(#mask0_284_2152)">
<path d="M3.89087 0.0175781C2.17676 0.0175781 0.855469 1.1246 0.855469 3.05297V8.5524C0.998311 9.2309 1.71252 9.73085 2.49815 9.73085C3.39092 9.73085 4.03371 9.08806 4.03371 8.30242V5.517H6.46203V8.26671C6.46203 9.80227 4.49795 10.5879 3.06952 10.5879C2.24818 10.5879 1.46255 10.3379 0.891179 9.9094V15.9802H4.74792C6.10492 15.9802 7.67618 14.6946 7.67618 13.0519V0.0175781H3.89087Z" fill="#F6F6F6"/>
<path d="M0.855469 3.05297V8.5524C0.998311 9.2309 1.71252 9.73085 2.49815 9.73085C3.39092 9.73085 4.03371 9.08806 4.03371 8.30242V5.517H6.46203V8.26671C6.46203 9.80227 4.49795 10.5879 3.06952 10.5879C2.24818 10.5879 1.46255 10.3379 0.891179 9.9094V15.9802H4.74792C6.10492 15.9802 7.67618 14.6946 7.67618 13.0519V0.0175781" fill="#F6F6F6"/>
<path d="M6.42631 5.51562V8.26533C6.42631 9.80089 4.46223 10.5865 3.03381 10.5865C2.21247 10.5865 1.42684 10.3365 0.855469 9.90803V15.9788H4.71221C6.06921 15.9788 7.64047 14.6932 7.64047 13.0505" fill="#F6F6F6"/>
<path d="M17.3926 9.65831H19.071C19.4995 9.65831 19.8923 9.2655 19.8923 8.83698C19.8923 8.40845 19.4995 8.01562 19.071 8.01562H17.3926V9.65831Z" fill="#F6F6F6"/>
<path d="M19.282 0.0175781C17.5322 0.0175781 16.2466 1.1246 16.2466 3.01726V5.517H20.7462C21.389 5.517 21.9246 6.05266 21.9246 6.69545C21.9246 7.33824 21.389 7.8739 20.7462 7.8739C21.4604 7.8739 22.0318 8.37385 22.0318 9.01663C22.0318 9.65942 21.4961 10.1594 20.7462 10.1594H16.2109V15.9802H20.0677C21.4247 15.9802 22.9959 14.6946 22.9959 13.0519V0.0175781H19.282Z" fill="#F6F6F6"/>
<path d="M16.2109 3.05297V5.517H20.7105C21.3533 5.517 21.8889 6.05266 21.8889 6.69545C21.8889 7.33824 21.3533 7.8739 20.7105 7.8739C21.4247 7.8739 21.996 8.37385 21.996 9.01663C21.996 9.65942 21.4604 10.1594 20.7105 10.1594H16.2109V15.9802H20.0677C21.4247 15.9802 22.9959 14.6946 22.9959 13.0519V0.0175781" fill="#F6F6F6"/>
<path d="M21.8889 6.69531C21.8889 7.3381 21.3533 7.87375 20.7105 7.87375C21.4247 7.87375 21.996 8.3737 21.996 9.01649C21.996 9.65928 21.4604 10.1593 20.7105 10.1593H16.2109V15.9801H20.0677C21.4247 15.9801 22.9959 14.6945 22.9959 13.0518" fill="#F6F6F6"/>
<path d="M19.8527 6.83892C19.8527 6.41039 19.4599 6.01758 19.0314 6.01758H17.3887V7.62455H19.0671C19.4956 7.62455 19.8527 7.26745 19.8527 6.83892Z" fill="#F6F6F6"/>
<path d="M11.5334 0.0175781C9.78363 0.0175781 8.49805 1.1246 8.49805 3.01726V6.08837C8.92657 5.73127 9.46223 5.48129 10.0336 5.48129H14.1046V6.33834C13.1404 6.12408 12.2119 6.01695 11.7477 6.01695C10.7478 6.01695 9.92647 6.83829 9.92647 7.83819C9.92647 8.83808 10.7478 9.65943 11.7477 9.65943C12.2119 9.65943 13.1404 9.588 14.1046 9.37374V10.1594H10.0336C9.46223 10.1594 8.89086 9.94511 8.49805 9.55229V15.9802H12.3548C13.7118 15.9802 15.2831 14.6946 15.2831 13.0519V0.0175781H11.5334Z" fill="#F6F6F6"/>
<path d="M8.49805 3.05297V6.12408C8.92657 5.76698 9.46223 5.517 10.0336 5.517H14.1046V6.37406C13.1404 6.15979 12.2119 6.05266 11.7477 6.05266C10.7478 6.05266 9.92647 6.874 9.92647 7.8739C9.92647 8.87379 10.7478 9.69514 11.7477 9.69514C12.2119 9.69514 13.1404 9.62371 14.1046 9.40945V10.1594H10.0336C9.46223 10.1594 8.89086 9.94511 8.49805 9.55229V15.9802H12.3548C13.7118 15.9802 15.2831 14.6946 15.2831 13.0519V0.0175781" fill="#F6F6F6"/>
<path d="M14.1046 5.51562V6.37268C13.1404 6.15841 12.2119 6.05128 11.7477 6.05128C10.7478 6.05128 9.92647 6.87262 9.92647 7.87252C9.92647 8.87241 10.7478 9.69377 11.7477 9.69377C12.2119 9.69377 13.1404 9.62233 14.1046 9.40807V10.158H10.0336C9.46223 10.158 8.89086 9.94374 8.49805 9.55092V15.9788H12.3548C13.7118 15.9788 15.2831 14.6932 15.2831 13.0505" fill="#F6F6F6"/>
</g>
</g>
<defs>
<clipPath id="clip0_284_2152">
<rect width="23" height="16" fill="white"/>
</clipPath>
</defs>
</svg>
