<svg width="21" height="16" viewBox="0 0 21 16" fill="none" xmlns="http://www.w3.org/2000/svg">
<g clip-path="url(#clip0_284_2168)">
<rect width="21" height="16" fill="#F6F6F6"/>
<path fill-rule="evenodd" clip-rule="evenodd" d="M5.91743 14.2638V15.1102V15.9565H5.54692V15.751C5.42939 15.9034 5.25107 15.9991 5.00869 15.9991C4.53085 15.9991 4.15625 15.6274 4.15625 15.1102C4.15625 14.5933 4.53085 14.2212 5.00869 14.2212C5.25107 14.2212 5.42939 14.3169 5.54692 14.4693V14.2638H5.91743ZM5.05412 14.5685C4.73339 14.5685 4.53711 14.8129 4.53711 15.1105C4.53711 15.408 4.73339 15.6524 5.05412 15.6524C5.36057 15.6524 5.56746 15.4185 5.56746 15.1105C5.56746 14.8024 5.36057 14.5685 5.05412 14.5685ZM18.4375 15.1105C18.4375 14.8129 18.6338 14.5685 18.9545 14.5685C19.2614 14.5685 19.4678 14.8024 19.4678 15.1105C19.4678 15.4185 19.2614 15.6524 18.9545 15.6524C18.6338 15.6524 18.4375 15.408 18.4375 15.1105ZM19.8182 13.584V15.1102V15.9565H19.4473V15.751C19.3298 15.9034 19.1515 15.9991 18.9091 15.9991C18.4312 15.9991 18.0566 15.6274 18.0566 15.1102C18.0566 14.5933 18.4312 14.2212 18.9091 14.2212C19.1515 14.2212 19.3298 14.3169 19.4473 14.4693V13.584H19.8182ZM10.5154 14.5514C10.7542 14.5514 10.9076 14.7001 10.9468 14.962H10.0625C10.1021 14.7176 10.2514 14.5514 10.5154 14.5514ZM9.67383 15.1102C9.67383 14.5824 10.0231 14.2212 10.5226 14.2212C11 14.2212 11.3281 14.5824 11.3318 15.1102C11.3318 15.1596 11.3281 15.2058 11.3244 15.2516H10.059C10.1125 15.5565 10.33 15.6663 10.5687 15.6663C10.7397 15.6663 10.9217 15.6023 11.0645 15.4892L11.2461 15.762C11.0392 15.9355 10.8042 15.9991 10.5475 15.9991C10.0374 15.9991 9.67383 15.6485 9.67383 15.1102ZM14.9961 15.1105C14.9961 14.8129 15.1924 14.5685 15.5131 14.5685C15.8196 14.5685 16.0264 14.8024 16.0264 15.1105C16.0264 15.4185 15.8196 15.6524 15.5131 15.6524C15.1924 15.6524 14.9961 15.408 14.9961 15.1105ZM16.3764 14.2638V15.1102V15.9565H16.0059V15.751C15.888 15.9034 15.7101 15.9991 15.4677 15.9991C14.9898 15.9991 14.6152 15.6274 14.6152 15.1102C14.6152 14.5933 14.9898 14.2212 15.4677 14.2212C15.7101 14.2212 15.888 14.3169 16.0059 14.4693V14.2638H16.3764ZM12.9045 15.1101C12.9045 15.6237 13.2644 15.9991 13.8136 15.9991C14.0703 15.9991 14.2413 15.9423 14.4265 15.7972L14.2486 15.4997C14.1095 15.599 13.9634 15.6521 13.8026 15.6521C13.5067 15.6485 13.2893 15.4361 13.2893 15.1101C13.2893 14.7842 13.5067 14.5718 13.8026 14.5682C13.9634 14.5682 14.1095 14.6213 14.2486 14.7206L14.4265 14.4231C14.2413 14.278 14.0703 14.2212 13.8136 14.2212C13.2644 14.2212 12.9045 14.5966 12.9045 15.1101ZM17.2325 14.4689C17.3288 14.3201 17.4679 14.2208 17.6818 14.2208C17.7568 14.2208 17.8638 14.235 17.9458 14.267L17.8315 14.614C17.7532 14.582 17.6748 14.5714 17.5997 14.5714C17.3574 14.5714 17.2362 14.7271 17.2362 15.0072V15.9561H16.8652V14.2634H17.2325V14.4689ZM7.74962 14.3983C7.5713 14.2816 7.32565 14.2212 7.0547 14.2212C6.62297 14.2212 6.34508 14.4267 6.34508 14.7632C6.34508 15.0392 6.55197 15.2095 6.93309 15.2626L7.10815 15.2873C7.31137 15.3157 7.40726 15.3688 7.40726 15.4644C7.40726 15.5954 7.27178 15.67 7.01879 15.67C6.76212 15.67 6.57686 15.5885 6.45199 15.4928L6.27734 15.7794C6.48056 15.9282 6.73723 15.9991 7.01511 15.9991C7.50723 15.9991 7.79247 15.7689 7.79247 15.4466C7.79247 15.1491 7.56803 14.9934 7.19711 14.9403L7.02246 14.9152C6.86209 14.8941 6.73355 14.8625 6.73355 14.749C6.73355 14.6249 6.85475 14.5508 7.05796 14.5508C7.27546 14.5508 7.48601 14.6322 7.58925 14.6959L7.74962 14.3983ZM12.0801 14.4689C12.176 14.3201 12.3152 14.2208 12.529 14.2208C12.6041 14.2208 12.711 14.235 12.793 14.267L12.6788 14.614C12.6004 14.582 12.5221 14.5714 12.447 14.5714C12.2046 14.5714 12.0834 14.7271 12.0834 15.0072V15.9561H11.7129V14.2634H12.0801V14.4689ZM9.36721 14.2638H8.76124V13.7502H8.38664V14.2638H8.04102V14.6002H8.38664V15.3724C8.38664 15.7652 8.54007 15.9991 8.97833 15.9991C9.1391 15.9991 9.32436 15.9496 9.44188 15.8682L9.33497 15.5528C9.22439 15.6164 9.10319 15.6485 9.00689 15.6485C8.82163 15.6485 8.76124 15.535 8.76124 15.3651V14.6002H9.36721V14.2638ZM3.82758 14.8937V15.9561H3.45298V15.0141C3.45298 14.7271 3.33178 14.5678 3.07879 14.5678C2.83273 14.5678 2.66175 14.7238 2.66175 15.0177V15.9561H2.28715V15.0141C2.28715 14.7271 2.16269 14.5678 1.91663 14.5678C1.66323 14.5678 1.49919 14.7238 1.49919 15.0177V15.9561H1.125V14.2634H1.49593V14.4721C1.63507 14.2739 1.81299 14.2208 1.99498 14.2208C2.25532 14.2208 2.44058 14.3343 2.5581 14.522C2.71521 14.2844 2.93964 14.2172 3.15713 14.2208C3.57091 14.2244 3.82758 14.4936 3.82758 14.8937Z" fill="#F6F6F6"/>
<path d="M13.2407 11.3886H7.625V1.36328H13.2407V11.3886Z" fill="#F6F6F6"/>
<path d="M7.9815 6.37586C7.9815 4.34218 8.94003 2.53064 10.4327 1.36321C9.34115 0.509533 7.96355 0 6.46638 0C2.92197 0 0.0488281 2.85452 0.0488281 6.37586C0.0488281 9.89719 2.92197 12.7518 6.46638 12.7518C7.96355 12.7518 9.34115 12.2422 10.4327 11.3885C8.94003 10.2211 7.9815 8.40953 7.9815 6.37586Z" fill="#F6F6F6"/>
<path d="M20.8179 6.37586C20.8179 9.89719 17.9447 12.7518 14.4003 12.7518C12.9032 12.7518 11.5256 12.2422 10.4336 11.3885C11.9267 10.2211 12.8852 8.40953 12.8852 6.37586C12.8852 4.34218 11.9267 2.53064 10.4336 1.36321C11.5256 0.509533 12.9032 0 14.4003 0C17.9447 0 20.8179 2.85452 20.8179 6.37586Z" fill="#F6F6F6"/>
</g>
<defs>
<clipPath id="clip0_284_2168">
<rect width="21" height="16" fill="white"/>
</clipPath>
</defs>
</svg>
