<svg width="50" height="32" viewBox="0 0 50 32" fill="none" xmlns="http://www.w3.org/2000/svg">
<g clip-path="url(#clip0_284_2173)">
<mask id="mask0_284_2173" style="mask-type:luminance" maskUnits="userSpaceOnUse" x="0" y="0" width="50" height="32">
<path d="M50 0H0V32H50V0Z" fill="white"/>
</mask>
<g mask="url(#mask0_284_2173)">
<path opacity="0.07" d="M46.0526 0H3.94737C1.71053 0 0 1.73333 0 4V28C0 30.2667 1.84211 32 3.94737 32H46.0526C48.2895 32 50 30.2667 50 28V4C50 1.73333 48.1579 0 46.0526 0Z" fill="#F6F6F6"/>
<path d="M46.0533 1.33398C47.5006 1.33398 48.6848 2.53398 48.6848 4.00065V28.0006C48.6848 29.4673 47.5006 30.6673 46.0533 30.6673H3.94799C2.50062 30.6673 1.31641 29.4673 1.31641 28.0006V4.00065C1.31641 2.53398 2.50062 1.33398 3.94799 1.33398H46.0533Z" fill="#F6F6F6"/>
<path d="M11.8064 13.69L12.8248 16.1913H10.7959L11.8064 13.69ZM32.9577 13.794H29.0406V14.8967H32.8946V16.5487H29.0485V17.778H32.9656V18.7633L35.6985 15.77L32.9656 12.65L32.9577 13.794ZM14.4538 10.674H19.7104L20.8775 13.254L21.959 10.666H35.6038L37.0222 12.2527L38.4893 10.666H44.7564L40.1262 15.802L44.709 20.906H38.3485L36.9301 19.3193L35.4498 20.906H13.1998L12.5498 19.3193H11.063L10.4117 20.906H5.26562L9.58931 10.666H14.1025L14.4538 10.674ZM25.8525 12.1113H22.9064L20.9327 16.826L18.7946 12.1113H15.8709V18.5247L13.1604 12.1113H10.538L7.40378 19.4607H9.44984L10.0998 17.874H13.5156L14.1656 19.4607H17.7446V14.214L20.0485 19.4687H21.6143L23.9038 14.23V19.47H25.8222L25.8538 12.11L25.8525 12.1113ZM38.1419 15.802L41.4722 12.1113H39.0748L36.9683 14.4127L34.9314 12.1113H27.1762V19.4687H34.8209L36.9446 17.1513L38.9814 19.4687H41.4485L38.1419 15.802Z" fill="#F7F7F7"/>
</g>
</g>
<defs>
<clipPath id="clip0_284_2173">
<rect width="50" height="32" fill="white"/>
</clipPath>
</defs>
</svg>
