<svg width="50" height="32" viewBox="0 0 50 32" fill="none" xmlns="http://www.w3.org/2000/svg">
<g clip-path="url(#clip0_284_2235)">
<mask id="mask0_284_2235" style="mask-type:luminance" maskUnits="userSpaceOnUse" x="0" y="0" width="50" height="32">
<path d="M50 0H0V32H50V0Z" fill="white"/>
</mask>
<g mask="url(#mask0_284_2235)">
<path opacity="0.07" d="M46.0526 0H3.94737C1.71053 0 0 1.73333 0 4V28C0 30.2667 1.84211 32 3.94737 32H46.0526C48.2895 32 50 30.2667 50 28V4C50 1.73333 48.1579 0 46.0526 0Z" fill="#F6F6F6"/>
<path d="M46.0533 1.33398C47.5006 1.33398 48.6848 2.53398 48.6848 4.00065V28.0006C48.6848 29.4673 47.5006 30.6673 46.0533 30.6673H3.94799C2.50062 30.6673 1.31641 29.4673 1.31641 28.0006V4.00065C1.31641 2.53398 2.50062 1.33398 3.94799 1.33398H46.0533Z" fill="#F7F7F7"/>
<path d="M37.236 13.466H36.8413C36.315 14.7993 35.9202 15.466 35.5255 17.466H38.0255C37.6308 15.466 37.6308 14.5327 37.236 13.466ZM41.0518 21.3327H38.815C38.6834 21.3327 38.6834 21.3327 38.5518 21.1993L38.2887 19.9993L38.1571 19.7327H34.9992C34.8676 19.7327 34.736 19.7327 34.736 19.9993L34.3413 21.1993C34.3413 21.3327 34.2097 21.3327 34.2097 21.3327H31.4465L31.7097 20.666L35.5255 11.5993C35.5255 10.9327 35.9202 10.666 36.5781 10.666H38.5518C38.6834 10.666 38.815 10.666 38.815 10.9327L40.6571 19.5993C40.7887 20.1327 40.9202 20.5327 40.9202 21.066C41.0518 21.1993 41.0518 21.1993 41.0518 21.3327ZM23.4202 20.9327L23.9465 18.5327C24.0781 18.5327 24.2097 18.666 24.2097 18.666C25.1308 19.066 26.0518 19.3327 26.9729 19.1993C27.236 19.1993 27.6308 19.066 27.8939 18.9327C28.5518 18.666 28.5518 17.9993 28.0255 17.466C27.7623 17.1993 27.3676 17.066 26.9729 16.7993C26.4465 16.5327 25.9202 16.266 25.5255 15.866C23.9465 14.5327 24.4729 12.666 25.3939 11.7327C26.1834 11.1993 26.5781 10.666 27.6308 10.666C29.2097 10.666 30.9202 10.666 31.7097 10.9327H31.8413C31.7097 11.7327 31.5781 12.3993 31.315 13.1993C30.6571 12.9327 29.9992 12.666 29.3413 12.666C28.9465 12.666 28.5518 12.666 28.1571 12.7993C27.8939 12.7993 27.7623 12.9327 27.6308 13.066C27.3676 13.3327 27.3676 13.7327 27.6308 13.9993L28.2887 14.5327C28.815 14.7993 29.3413 15.066 29.736 15.3327C30.3939 15.7327 31.0518 16.3993 31.1834 17.1993C31.4465 18.3993 31.0518 19.466 29.9992 20.266C29.3413 20.7993 29.0781 21.066 28.1571 21.066C26.315 21.066 24.8676 21.1993 23.6834 20.7993C23.5518 21.066 23.5518 21.066 23.4202 20.9327ZM18.815 21.3327C18.9465 20.3993 18.9465 20.3993 19.0781 19.9993C19.736 17.066 20.3939 13.9993 20.9202 11.066C21.0518 10.7993 21.0518 10.666 21.315 10.666H23.6834C23.4202 12.266 23.1571 13.466 22.7623 14.9327C22.3676 16.9327 21.9729 18.9327 21.4465 20.9327C21.4465 21.1993 21.315 21.1993 21.0518 21.1993M6.57812 10.9327C6.57812 10.7993 6.84128 10.666 6.97286 10.666H11.4465C12.1044 10.666 12.6308 11.066 12.7623 11.7327L13.9465 17.5993C13.9465 17.7327 13.9465 17.7327 14.0781 17.866C14.0781 17.7327 14.2097 17.7327 14.2097 17.7327L16.9729 10.9327C16.8413 10.7993 16.9729 10.666 17.1044 10.666H19.8676C19.8676 10.7993 19.8676 10.7993 19.736 10.9327L15.6571 20.666C15.5255 20.9327 15.5255 21.066 15.3939 21.1993C15.2623 21.3327 14.9992 21.1993 14.736 21.1993H12.7623C12.6308 21.1993 12.4992 21.1993 12.4992 20.9327L10.3939 12.666C10.1308 12.3993 9.73602 11.9993 9.2097 11.866C8.42023 11.466 6.97286 11.1993 6.7097 11.1993L6.57812 10.9327Z" fill="#F6F6F6"/>
</g>
</g>
<defs>
<clipPath id="clip0_284_2235">
<rect width="50" height="32" fill="white"/>
</clipPath>
</defs>
</svg>
