<svg width="51" height="32" viewBox="0 0 51 32" fill="none" xmlns="http://www.w3.org/2000/svg">
<g clip-path="url(#clip0_284_2181)">
<mask id="mask0_284_2181" style="mask-type:luminance" maskUnits="userSpaceOnUse" x="0" y="0" width="51" height="32">
<path d="M51 0H0V32H51V0Z" fill="white"/>
</mask>
<g mask="url(#mask0_284_2181)">
<path opacity="0.07" d="M46.9737 0H4.02632C1.74474 0 0 1.73333 0 4V28C0 30.2667 1.87895 32 4.02632 32H46.9737C49.2553 32 51 30.2667 51 28V4C51 1.73333 49.1211 0 46.9737 0Z" fill="#F6F6F6"/>
<path d="M46.9753 1.33398C48.4516 1.33398 49.6595 2.53398 49.6595 4.00065V28.0006C49.6595 29.4673 48.4516 30.6673 46.9753 30.6673H4.02796C2.55164 30.6673 1.34375 29.4673 1.34375 28.0006V4.00065C1.34375 2.53398 2.55164 1.33398 4.02796 1.33398H46.9753Z" fill="#F7F7F7"/>
<path d="M16.1052 15.9993V20.9327C16.1052 21.3327 15.8368 21.3327 15.4341 21.1993C12.8841 20.1327 11.4078 16.7993 12.3473 13.9993C12.8841 12.5327 13.9578 11.3327 15.4341 10.7993C15.971 10.5327 16.1052 10.666 16.1052 11.066V15.9993ZM18.7894 15.9993V11.066C18.7894 10.666 18.7894 10.666 19.192 10.7993C22.0104 11.866 23.4868 15.1993 22.4131 17.9993C21.8762 19.466 20.8025 20.666 19.3262 21.1993C18.7894 21.466 18.7894 21.3327 18.7894 20.9327V15.9993ZM28.4525 6.66602H17.4473C22.5473 6.66602 26.5736 10.7993 26.5736 15.9993C26.5736 21.1993 22.5473 25.3327 17.4473 25.3327H28.4525C33.5525 25.3327 37.5789 21.1993 37.5789 15.9993C37.5789 10.7993 33.5525 6.66602 28.4525 6.66602Z" fill="#F6F6F6"/>
</g>
</g>
<defs>
<clipPath id="clip0_284_2181">
<rect width="51" height="32" fill="white"/>
</clipPath>
</defs>
</svg>
