<svg width="60" height="16" viewBox="0 0 60 16" fill="none" xmlns="http://www.w3.org/2000/svg">
<g clip-path="url(#clip0_284_2222)">
<rect width="60" height="16" fill="#F6F6F6"/>
<path d="M22.4048 3.95508H19.0889C18.862 3.95508 18.669 4.11993 18.6336 4.34393L17.2925 12.8467C17.2659 13.0144 17.3958 13.1657 17.566 13.1657H19.149C19.3759 13.1657 19.5689 13.0009 19.6043 12.7764L19.966 10.4831C20.0009 10.2586 20.1944 10.0937 20.4208 10.0937H21.4705C23.6547 10.0937 24.9153 9.03678 25.2445 6.94224C25.3929 6.02587 25.2508 5.30587 24.8218 4.80163C24.3505 4.24793 23.5146 3.95508 22.4048 3.95508ZM22.7873 7.06054C22.606 8.25036 21.6969 8.25036 20.8179 8.25036H20.3175L20.6685 6.0283C20.6894 5.89399 20.8058 5.79508 20.9415 5.79508H21.1708C21.7696 5.79508 22.3345 5.79508 22.6264 6.13642C22.8004 6.34005 22.8538 6.6426 22.7873 7.06054Z" fill="#F6F6F6"/>
<path d="M32.3169 7.02239H30.729C30.5938 7.02239 30.4769 7.1213 30.4561 7.2556L30.3858 7.69972L30.2747 7.53875C29.931 7.03984 29.1644 6.87305 28.3994 6.87305C26.6447 6.87305 25.146 8.20202 24.8541 10.0662C24.7024 10.9962 24.9181 11.8854 25.4457 12.5055C25.9295 13.0757 26.6219 13.3133 27.4457 13.3133C28.8595 13.3133 29.6435 12.4042 29.6435 12.4042L29.5727 12.8454C29.546 13.0141 29.676 13.1654 29.8452 13.1654H31.2755C31.5029 13.1654 31.6949 13.0005 31.7307 12.7761L32.5889 7.34142C32.6161 7.17414 32.4866 7.02239 32.3169 7.02239ZM30.1036 10.1128C29.9504 11.0199 29.2304 11.6289 28.3121 11.6289C27.851 11.6289 27.4825 11.481 27.2459 11.2008C27.0112 10.9225 26.922 10.5264 26.9967 10.0851C27.1397 9.18578 27.8718 8.55693 28.7761 8.55693C29.227 8.55693 29.5935 8.70675 29.835 8.98942C30.0769 9.27499 30.1729 9.67354 30.1036 10.1128Z" fill="#F6F6F6"/>
<path d="M40.7731 7.02344H39.1775C39.0252 7.02344 38.8822 7.09907 38.7959 7.22562L36.5952 10.4673L35.6623 7.35217C35.6037 7.15726 35.4238 7.02344 35.2201 7.02344H33.6521C33.4616 7.02344 33.3292 7.20962 33.3898 7.38901L35.1474 12.5468L33.4951 14.8794C33.3651 15.0632 33.496 15.3158 33.7205 15.3158H35.3142C35.4655 15.3158 35.6071 15.2421 35.6929 15.118L41 7.45738C41.1271 7.2741 40.9966 7.02344 40.7731 7.02344Z" fill="#F6F6F6"/>
<path d="M46.0571 3.95508H42.7408C42.5143 3.95508 42.3214 4.11993 42.286 4.34393L40.9449 12.8467C40.9182 13.0144 41.0482 13.1657 41.2174 13.1657H42.9192C43.0773 13.1657 43.2125 13.0503 43.2373 12.8932L43.6179 10.4831C43.6528 10.2586 43.8462 10.0937 44.0726 10.0937H45.1219C47.3066 10.0937 48.5667 9.03678 48.8964 6.94224C49.0453 6.02587 48.9022 5.30587 48.4731 4.80163C48.0023 4.24793 47.1669 3.95508 46.0571 3.95508ZM46.4397 7.06054C46.2588 8.25036 45.3497 8.25036 44.4702 8.25036H43.9703L44.3219 6.0283C44.3427 5.89399 44.4581 5.79508 44.5943 5.79508H44.8237C45.422 5.79508 45.9873 5.79508 46.2792 6.13642C46.4533 6.34005 46.5061 6.6426 46.4397 7.06054Z" fill="#F6F6F6"/>
<path d="M55.9672 7.02239H54.3803C54.244 7.02239 54.1282 7.1213 54.1078 7.2556L54.0375 7.69972L53.926 7.53875C53.5822 7.03984 52.8162 6.87305 52.0511 6.87305C50.2964 6.87305 48.7982 8.20202 48.5064 10.0662C48.3551 10.9962 48.5699 11.8854 49.0974 12.5055C49.5822 13.0757 50.2736 13.3133 51.0974 13.3133C52.5112 13.3133 53.2952 12.4042 53.2952 12.4042L53.2244 12.8454C53.1977 13.0141 53.3277 13.1654 53.4979 13.1654H54.9277C55.1541 13.1654 55.3471 13.0005 55.3825 12.7761L56.2411 7.34142C56.2673 7.17414 56.1374 7.02239 55.9672 7.02239ZM53.7539 10.1128C53.6016 11.0199 52.8807 11.6289 51.9624 11.6289C51.5022 11.6289 51.1328 11.481 50.8962 11.2008C50.6615 10.9225 50.5733 10.5264 50.647 10.0851C50.791 9.18578 51.5221 8.55693 52.4263 8.55693C52.8773 8.55693 53.2438 8.70675 53.4853 8.98942C53.7282 9.27499 53.8242 9.67354 53.7539 10.1128Z" fill="#F6F6F6"/>
<path d="M57.8391 4.18878L56.4781 12.8472C56.4514 13.015 56.5814 13.1662 56.7506 13.1662H58.1188C58.3462 13.1662 58.5392 13.0014 58.5741 12.7769L59.9162 4.27459C59.9428 4.10684 59.8129 3.95508 59.6437 3.95508H58.1115C57.9763 3.95556 57.8599 4.05447 57.8391 4.18878Z" fill="#F6F6F6"/>
<path d="M3.52216 14.8185L3.77573 13.2078L3.21088 13.1947H0.513672L2.3881 1.30963C2.39391 1.27375 2.41282 1.24029 2.44046 1.21654C2.4681 1.19278 2.50349 1.17969 2.54034 1.17969H7.08822C8.59804 1.17969 9.63997 1.49387 10.184 2.11399C10.439 2.4049 10.6014 2.7089 10.68 3.04344C10.7624 3.39448 10.7639 3.81387 10.6834 4.32538L10.6776 4.36272V4.69048L10.9326 4.83496C11.1474 4.9489 11.318 5.07932 11.4489 5.22866C11.6671 5.47738 11.8082 5.79351 11.8679 6.16829C11.9294 6.55375 11.9091 7.01241 11.8082 7.53169C11.6919 8.12902 11.5037 8.64926 11.2497 9.07496C11.016 9.4672 10.7183 9.79254 10.3648 10.0447C10.0274 10.2842 9.6264 10.466 9.17307 10.5824C8.73379 10.6968 8.23294 10.7545 7.68361 10.7545H7.32967C7.07658 10.7545 6.83076 10.8456 6.63779 11.009C6.44434 11.1758 6.31634 11.4037 6.27707 11.6529L6.2504 11.7979L5.8024 14.6367L5.78204 14.7409C5.7767 14.7739 5.76749 14.7904 5.75391 14.8015C5.74179 14.8117 5.72434 14.8185 5.70737 14.8185H3.52216Z" fill="#F6F6F6"/>
<path d="M11.1744 4.40234C11.1608 4.48913 11.1453 4.57785 11.1278 4.669C10.5281 7.74828 8.4762 8.81203 5.8556 8.81203H4.52129C4.20081 8.81203 3.93075 9.04476 3.88081 9.36088L3.19766 13.6935L3.0042 14.9216C2.97172 15.1292 3.13172 15.3163 3.34117 15.3163H5.70772C5.98796 15.3163 6.22602 15.1127 6.27014 14.8363L6.29341 14.7161L6.73899 11.8884L6.7676 11.7333C6.81123 11.4559 7.04978 11.2523 7.33002 11.2523H7.68396C9.97681 11.2523 11.7717 10.3214 12.2963 7.62755C12.5155 6.50222 12.402 5.56258 11.8221 4.90173C11.6466 4.70246 11.4289 4.53713 11.1744 4.40234Z" fill="#F6F6F6"/>
<path d="M10.547 4.15082C10.4554 4.12415 10.3609 4.09991 10.2639 4.07809C10.1664 4.05676 10.0666 4.03785 9.96377 4.02137C9.60401 3.96318 9.20983 3.93555 8.78753 3.93555H5.22292C5.13516 3.93555 5.05177 3.95543 4.9771 3.9913C4.81274 4.07033 4.69056 4.22597 4.66098 4.41652L3.90268 9.21942L3.88086 9.35955C3.9308 9.04342 4.20086 8.8107 4.52134 8.8107H5.85565C8.47625 8.8107 10.5281 7.74646 11.1279 4.66767C11.1458 4.57652 11.1609 4.48779 11.1744 4.401C11.0227 4.32052 10.8583 4.25167 10.6813 4.193C10.6377 4.17846 10.5926 4.1644 10.547 4.15082Z" fill="#F6F6F6"/>
<path d="M4.66133 4.41644C4.6909 4.2259 4.81308 4.07026 4.97745 3.99171C5.0526 3.95584 5.13551 3.93596 5.22327 3.93596H8.78787C9.21018 3.93596 9.60436 3.96359 9.96412 4.02178C10.0669 4.03826 10.1668 4.05717 10.2642 4.0785C10.3612 4.10032 10.4558 4.12456 10.5474 4.15123C10.593 4.16481 10.6381 4.17887 10.6822 4.19293C10.8591 4.25159 11.0235 4.32093 11.1753 4.40093C11.3537 3.26299 11.1738 2.4882 10.5585 1.78662C9.88024 1.01426 8.65599 0.683594 7.08945 0.683594H2.54157C2.22157 0.683594 1.9486 0.916321 1.89915 1.23293L0.00484308 13.2402C-0.0324903 13.4778 0.150782 13.6921 0.390298 13.6921H3.19806L3.90302 9.21935L4.66133 4.41644Z" fill="#F6F6F6"/>
</g>
<defs>
<clipPath id="clip0_284_2222">
<rect width="60" height="16" fill="white"/>
</clipPath>
</defs>
</svg>
