<svg width="100" height="100" viewBox="0 0 100 100" fill="none" xmlns="http://www.w3.org/2000/svg">
<path d="M50.562 21.1543C56.0351 24.8081 57.7152 32.5644 53.8922 37.8029C51.9717 40.4312 51.7883 43.0983 52.2061 46.5638C55.7015 38.8614 60.6215 33.7664 69.6381 34.3644C69.7645 36.8675 69.0832 39.3453 67.6936 41.4359C64.9645 45.7266 60.841 47.7987 55.933 48.612C52.3263 49.21 52.0948 50.5017 52.197 52.9177C52.3203 55.7373 52.2271 58.5659 52.2271 61.6068C62.6713 57.029 73.4641 55.3277 84.5756 55.5968C89.6519 55.7194 94.7193 56.2307 100 56.5805C99.7265 58.551 99.5101 60.0938 99.2727 61.7802C96.8292 61.6487 94.5059 61.4812 92.1796 61.4035C76.0579 60.7726 60.7087 63.6042 46.5316 71.5697C45.8073 71.9763 45.3294 71.9464 44.6562 71.4949C32.0931 63.1736 18.1444 60.4975 3.30007 61.5321C0.510934 61.7264 0.504919 61.7533 0.102178 59.0084C0.030045 58.5211 0.0390719 58.0217 0 57.337C8.2051 55.4054 16.4583 55.522 24.7415 56.1051C33.0729 56.6882 41.1427 58.3775 48.9841 61.8131C48.9841 57.9829 49.1675 54.338 48.9 50.7499C48.7858 49.204 46.8622 49.0934 45.5939 48.6718C43.7064 48.0469 41.6657 47.7748 39.8834 46.9525C34.9303 44.6382 31.8166 40.8498 31.2635 35.2614C31.2395 35.0222 31.2635 34.777 31.2635 34.4062C40.4965 33.578 45.5037 38.7478 48.915 46.3994C48.936 43.7292 49.7926 41.083 47.7639 38.7149C43.2255 33.4315 44.7253 25.6035 50.562 21.1543Z" fill="#A2F7B4"/>
<path d="M26.3994 94.2402C45.5026 72.2124 69.7692 63.8283 98.4359 65.0632C97.4501 67.4552 96.6326 69.5483 95.6618 71.5994C95.4965 71.9463 94.643 72.0958 94.099 72.1167C87.3816 72.3649 80.7304 73.1004 74.2474 74.9363C60.4911 78.8234 49.2534 86.3614 40.8469 97.9598C40.5464 98.3874 39.783 98.8568 39.3442 98.7791C34.9922 97.8521 30.8266 96.3422 26.3994 94.2402Z" fill="#0B5755"/>
<path d="M22.6702 92.0617C12.9503 86.4104 5.0097 75.5296 2.14844 66.0691C10.8284 63.4169 32.5644 68.1292 41.3165 74.6446C34.0331 79.2033 27.7019 85.1171 22.6702 92.0617Z" fill="#A2F7B4"/>
<path d="M45.166 99.6881C57.5518 84.1817 74.1964 77.8039 93.2905 75.7168C84.0846 91.3518 65.6487 101.99 45.166 99.6881Z" fill="#0B5755"/>
<path d="M71.4623 22.025C69.2652 22.025 68.3395 20.3686 69.3163 18.8137C70.5606 16.8313 71.9882 14.9625 73.3918 13.0848C74.3175 11.8469 75.3003 10.6479 76.3252 9.4967C77.1938 8.51297 78.5042 8.36645 79.3968 9.10201C80.4217 9.94221 80.5089 11.0306 79.7785 12.0353C77.6055 15.0253 75.3935 17.9735 73.1093 20.8739C72.6314 21.4749 71.7929 21.8008 71.4623 22.025Z" fill="#0B5755"/>
<path d="M52.8347 8.08054C52.8347 9.82076 52.8558 11.561 52.8347 13.3012C52.8107 14.8201 51.933 15.756 50.6166 15.7471C49.3002 15.7381 48.3595 14.7843 48.3564 13.3012C48.3564 9.77292 48.3565 6.23867 48.4436 2.7104C48.4887 0.850584 49.2551 -0.0404524 50.5475 0.00140837C51.8399 0.0432692 52.7475 1.14959 52.7896 2.85691C52.8317 4.56423 52.7896 6.34033 52.7896 8.08054H52.8347Z" fill="#0B5755"/>
<path d="M19.4265 35.274C19.4535 37.2265 18.044 38.3747 16.7005 37.7467C13.1259 36.0783 9.59338 34.3221 6.10296 32.4783C4.7655 31.7696 4.40185 30.4002 5.07208 29.4493C5.85653 28.337 6.9295 28.2533 8.11669 28.8304C11.4739 30.4959 14.8581 32.1195 18.1792 33.8477C18.7983 34.1736 19.171 34.969 19.4265 35.274Z" fill="#0B5755"/>
<path d="M95.5707 31.2545C95.3273 31.5714 94.9696 32.4296 94.3385 32.7914C91.1826 34.5854 87.9767 36.3017 84.7208 37.9402C83.3623 38.6279 82.0759 38.0718 81.4838 36.7651C80.8556 35.3837 81.6221 34.6003 82.7371 34.0203C85.9591 32.3428 89.166 30.6325 92.433 29.0388C94.041 28.2554 95.5377 29.1614 95.5707 31.2545Z" fill="#0B5755"/>
<path d="M23.7092 8.11328C24.0549 8.35249 24.9115 8.6784 25.3593 9.28837C27.4301 12.0243 29.4017 14.8319 31.3914 17.6276C31.6759 18.0347 31.91 18.4745 32.0887 18.9373C32.4914 19.9718 32.1879 20.9765 31.2261 21.3293C30.5288 21.5805 29.2034 21.4998 28.8397 21.0303C26.3301 17.828 23.9077 14.5449 21.6475 11.1631C20.7098 9.75482 21.6865 8.17906 23.7092 8.11328Z" fill="#0B5755"/>
</svg>
